<?xml version="1.0" encoding="UTF-8"?><!DOCTYPE svg PUBLIC "-//W3C//DTD SVG 1.1//EN" "http://www.w3.org/Graphics/SVG/1.1/DTD/svg11.dtd"><svg xmlns="http://www.w3.org/2000/svg"><symbol id="icon-arrow-dots--down" viewBox="0 0 18 12"><path d="M0 0h6v6H0zm6 6h6v6H6zm6-6h6v6h-6z"/></symbol><symbol id="icon-arrow-dots" viewBox="0 0 6 9"><path fill="#d52834" d="M0 0h3v3H0zm3 3h3v3H3zM0 6h3v3H0z"/></symbol><symbol id="icon-arrow-down--double" viewBox="0 0 36 34"><path d="M17.996 19.923L36 3.525 32.143.012 18.006 12.887 3.857 0 0 3.514 14.148 16.4l-.009.01z"/><path d="M17.996 34L36 17.601l-3.857-3.513L18.006 26.96 3.857 14.074 0 17.587l14.148 12.887-.009.011z"/></symbol><symbol id="icon-arrow-down" viewBox="0 0 36 20"><path d="M17.996 20L36 3.54 32.143.014 18.007 12.935 3.857 0 0 3.526l14.149 12.936-.01.011z"/></symbol><symbol id="icon-arrow-left--double" viewBox="0 0 34 36"><path d="M14.076 17.996L30.474 36l3.513-3.857-12.874-14.137L34 3.857 30.486 0 17.6 14.148l-.011-.009z"/><path d="M0 17.996L16.398 36l3.514-3.857L7.039 18.006 19.925 3.857 16.411 0 3.524 14.148l-.01-.009z"/></symbol><symbol id="icon-arrow-left" viewBox="0 0 20 36"><path d="M0 17.996L16.46 36l3.527-3.857L7.065 18.007 20 3.857 16.473 0 3.538 14.149l-.011-.01z"/></symbol><symbol id="icon-arrow-right--classic" viewBox="0 0 21 16"><path d="M20.517 7.948L10.207.017v4.621H0v6.828h10.207v4.482z"/></symbol><symbol id="icon-arrow-right--double" viewBox="0 0 34 36"><path d="M20 18.004L3.54 0 .013 3.857l12.923 14.136L0 32.143 3.527 36l12.936-14.149.01.01z"/><path d="M34 18.004L17.54 0l-3.527 3.857 12.923 14.136L14 32.143 17.527 36l12.936-14.149.01.01z"/></symbol><symbol id="icon-arrow-right" viewBox="0 0 20 36"><path d="M20 18.004L3.54 0 .013 3.857l12.922 14.136L0 32.143 3.527 36l12.935-14.149.011.01z"/></symbol><symbol id="icon-arrow-top--double" viewBox="0 0 36 34"><path d="M18.004 14.076L0 30.475l3.857 3.513 14.137-12.875L32.143 34 36 30.486 21.852 17.6l.009-.01z"/><path d="M18.004 0L0 16.398l3.857 3.514L17.994 7.039l14.149 12.887L36 16.412 21.852 3.525l.009-.01z"/></symbol><symbol id="icon-audio-player-dots" viewBox="0 0 40 5"><path d="M0 0h5v5H0zm7 0h5v5H7zm7 0h5v5h-5zm7 0h5v5h-5zm7 0h5v5h-5zm7 0h5v5h-5z"/></symbol><symbol id="icon-breaking" viewBox="0 0 19 13"><path d="M0 0h14v3H0z"/><path fill="#fff" d="M0 5h19v3H0z"/><path d="M0 10h14v3H0z"/></symbol><symbol id="icon-bullet--black" viewBox="0 0 21 13"><path d="M0 0h14v3H0zm0 10h14v3H0zm0-5h21v3H0z"/></symbol><symbol id="icon-bullet--md" viewBox="0 0 32 21"><path d="M0 0h21v5H0zm0 16h21v5H0z"/><path fill="#c81b1b" d="M0 8h32v5H0z"/></symbol><symbol id="icon-bullet" viewBox="0 0 21 13"><path d="M0 0h14v3H0zm0 10h14v3H0z"/><path fill="#c81b1b" d="M0 5h21v3H0z"/></symbol><symbol id="icon-close" viewBox="0 0 34 34"><path d="M34 3.67L30.361.029l-13.34 13.345L3.652 0 .013 3.641l13.332 13.338L0 30.33l3.639 3.641 13.34-13.345L30.348 34l3.639-3.641-13.332-13.338z"/></symbol><symbol id="icon-email" viewBox="0 0 22 22"><path d="M3.8 6h14.5c.2.1.2.4.2.8v8.7c0 .4 0 .7-.3.8H3.6c-.2-.1-.2-.4-.2-.8V6.4c.1-.3.3-.4.4-.4zm1.4.7c1.7 1.4 3.5 2.7 5.2 4.1.1.1.3.2.4.2.3.1.5-.1.7-.3 1.7-1.4 3.4-2.7 5.1-4.1 0 0 .1 0 .1-.1-3.8.2-7.7.2-11.5.2zm12.5.1c-1.9 1.5-3.9 3.1-5.8 4.6-.3.2-.6.5-1 .5s-.7-.3-1-.5c-.3-.2-.6-.4-.8-.7L4.3 6.8l-.1-.1v8.8h13.6c-.1-2.9-.1-5.8-.1-8.7z"/></symbol><symbol id="icon-envelope" viewBox="0 0 30 21"><path d="M29.5 0H0v21h30V0h-.5zM2 2.051c3.094 2.517 6.184 5.014 9.29 7.571.531.438 1.08.884 1.656 1.343.556.441 1.116.942 2.013.957.91.016 1.504-.469 2.064-.922C20.684 8.02 24.349 5.041 28 2.07V19H2V2.051zM25.856 2c-3.234 2.617-6.456 5.266-9.72 7.921-.399.323-.805.741-1.484.521-.24-.078-.502-.3-.752-.506-3.234-2.667-6.499-5.298-9.741-7.937h21.697V2z"/></symbol><symbol id="icon-facebook--footer" viewBox="0 0 13 26"><path d="M0 8.599h2.687V5.987c0-1.153.029-2.928.865-4.029C4.434.792 5.645 0 7.726 0c3.389 0 4.817.483 4.817.483l-.671 3.982s-1.121-.324-2.166-.324c-1.047 0-1.98.375-1.98 1.419v3.037h4.285l-.3 3.89H7.726V26H2.687V12.488H0V8.599z"/></symbol><symbol id="icon-facebook" viewBox="0 0 22 22"><path d="M7.5 8.2h1.8V6.5c0-.8 0-1.9.6-2.6.6-.8 1.4-1.3 2.7-1.3 2.2 0 3.2.3 3.2.3l-.4 2.6s-.7-.2-1.4-.2-1.3.2-1.3.9v2h2.8l-.2 2.5h-2.6v8.8H9.2v-8.8H7.5V8.2z"/></symbol><symbol id="icon-gplus" viewBox="0 0 22 22"><path d="M13.3 10.9c0 1-.2 2-.7 2.8-.4.8-1.1 1.5-1.9 1.9-.8.4-1.7.7-2.7.7-.7 0-1.5-.1-2.1-.4-.7-.3-1.3-.7-1.8-1.2s-.9-1.1-1.2-1.8c-.3-.7-.4-1.4-.4-2.1 0-.7.1-1.5.4-2.1.3-.7.7-1.3 1.2-1.8S5.2 6 5.8 5.7c.7-.3 1.4-.4 2.2-.4 1.4 0 2.7.5 3.7 1.4l-1.5 1.4c-.6-.5-1.3-.8-2.2-.8-.6 0-1.2.2-1.7.5-.6.3-1 .7-1.3 1.2-.3.5-.5 1.1-.5 1.7 0 .6.2 1.2.5 1.7s.7 1 1.2 1.3c.5.3 1.1.5 1.7.5.4 0 .8-.1 1.1-.2.3-.1.6-.3.9-.4l.6-.6c.2-.2.3-.4.4-.6.1-.2.1-.4.2-.6H8V10h5.2c0 .3.1.6.1.9zm6.5-.9v1.6h-1.6v1.6h-1.6v-1.6H15V10h1.6V8.4h1.6V10h1.6z"/></symbol><symbol id="icon-home" viewBox="0 0 22 22"><path d="M15 8V4h-1v3l-3-3-8 8h3v6h3v-4h4v4h3v-6h3z"/></symbol><symbol id="icon-images" viewBox="0 0 21 21"><path fill="#d52834" d="M0 0h21v21H0z"/><path fill="#fff" d="M2 5h8v2H2z"/><path fill="#fff" d="M5 2h2v8H5zm10.65 5.9c.9-.1 1.7.45 2 .85 1 1.5-.15 3.25-1.65 3.35-1.25.05-2.4-.9-2.25-2.4.1-1 .85-1.7 1.9-1.8zm-5.9 1.4c1.55 2.95 1.55 2.85 3.35 5.6.6-.4 1.15-.85 1.8-1.3.1-.05.5-.45.55-.45.1 0 .35.45.5.65 1.05 1.5 2.1 3.25 3.1 4.7H4.85c2.35-4.45 2.65-4.75 4.9-9.2z"/></symbol><symbol id="icon-logo-irozhlas" viewBox="0 0 373 54"><path d="M19.811 16H5.65v3.887l5.346 1.32v26.587L5.65 49.112V53h19.506v-3.888l-5.345-1.318zm-4.442-6c1.611 0 2.853-.455 3.725-1.362.873-.91 1.309-2.109 1.309-3.604 0-1.492-.448-2.702-1.342-3.636C18.166.466 16.936 0 15.369 0s-2.785.466-3.658 1.398c-.872.935-1.308 2.145-1.308 3.636 0 1.494.424 2.693 1.275 3.604.85.907 2.08 1.362 3.691 1.362zM62.37 33.07a20.44 20.44 0 0 0-1.494-2.048 22.124 22.124 0 0 0-1.076-1.217c1.62-.369 2.95-.855 3.991-1.458a24.43 24.43 0 0 0 2.812-1.875c1.619-1.25 2.903-2.813 3.853-4.689.948-1.874 1.423-3.782 1.423-5.729 0-1.943-.486-3.863-1.457-5.764-.972-1.898-2.291-3.447-3.958-4.652a13.776 13.776 0 0 0-4.512-2.015C60.287 3.209 58.342 3 56.121 3H30.158v4.028L36 8.486v39.027l-5.842 1.459V53h21.451v-4.027l-6.595-1.459V31.126h6.665l9.094 17.847V53h16.382v-4.027l-6.178-1.319L62.37 33.07zm-9.512-7.014h-7.844V8.069h7.567c2.822 0 4.998.603 6.525 1.806a8.958 8.958 0 0 1 2.222 2.848c.555 1.111.833 2.36.833 3.75 0 1.53-.267 2.952-.798 4.27-.532 1.321-1.262 2.374-2.187 3.159-1.667 1.437-3.773 2.154-6.318 2.154zM117.641 8.19a18.047 18.047 0 0 0-7.324-4.477c-2.801-.901-6.074-1.353-9.822-1.353-3.935 0-7.254.484-9.962 1.457a17.502 17.502 0 0 0-6.977 4.582c-2.221 2.361-3.935 5.301-5.137 8.816-1.204 3.518-1.805 7.312-1.805 11.385s.602 7.786 1.805 11.142c1.203 3.356 2.822 6.074 4.859 8.157 1.897 1.943 4.223 3.401 6.977 4.374 2.753.971 6.097 1.456 10.032 1.456 3.933 0 7.276-.485 10.03-1.456 2.753-.973 5.125-2.5 7.116-4.582 2.406-2.499 4.165-5.52 5.275-9.061 1.012-3.224 1.666-7.003 1.666-11.142a35.96 35.96 0 0 0-1.562-10.585c-1.041-3.402-2.765-6.304-5.171-8.713zm-4.304 29.748c-.648 2.616-1.574 4.732-2.777 6.353-2.221 3.054-5.508 4.581-9.857 4.581-2.454 0-4.502-.439-6.144-1.319-1.644-.878-3.02-2.175-4.13-3.886-1.157-1.76-2.072-4.027-2.742-6.804-.672-2.777-1.007-5.972-1.007-9.581 0-6.942 1.295-12.124 3.887-15.55a11.295 11.295 0 0 1 3.957-3.366c1.573-.809 3.472-1.215 5.692-1.215 2.176 0 4.131.418 5.866 1.249 1.735.832 3.205 2.129 4.408 3.889 1.203 1.757 2.14 3.979 2.812 6.664.67 2.684 1.007 5.855 1.007 9.511 0 3.702-.324 6.86-.972 9.474zm46.336 9.854h-22.144l28.809-40.556V3h-37.417v15.763h5.692l2.221-10.554h18.744l-28.809 40.555V53h41.166V36.472h-6.04zM205 7.028l5.832 1.458v16.322H190V8.486l5.857-1.458V3h-20.688v4.028L181 8.486v39.028l-5.831 1.459V53h20.688v-4.027L190 47.514V29.876h20.832v17.638L205 48.973V53h20.687v-4.027l-5.833-1.459V8.486l5.833-1.458V3H205zm60.823 40.764h-16.799V8.486l7.22-1.458V3h-22.77v4.028l6.525 1.458v39.028l-6.525 1.459V53h40.61V35.779h-5.901zm42.569-45.467h-8.538l-16.245 45.19-5.692 1.458V53h18.327v-4.026l-5.763-1.458 3.609-10.76h16.938l3.542 10.76-5.692 1.458V53h21.173v-4.026l-5.554-1.458-16.105-45.191zm-12.565 29.363l6.803-20.201h.276l6.458 20.201h-13.537zm72.745 3.462c-.557-1.342-1.448-2.614-2.675-3.818-1.227-1.203-2.845-2.383-4.857-3.541-2.014-1.156-4.479-2.406-7.395-3.749a179.07 179.07 0 0 1-4.895-2.29c-1.318-.647-2.384-1.308-3.193-1.979-.81-.67-1.387-1.423-1.734-2.255-.346-.834-.521-1.851-.521-3.056 0-4.95 2.615-7.428 7.844-7.428 3.378 0 5.878 1.041 7.498 3.125 1.619 2.083 2.429 5.299 2.429 9.648h6.041v-16.8h-5.97l-.556 3.124c-2.871-2.592-6.595-3.886-11.178-3.886-4.627 0-8.319 1.225-11.072 3.679-2.753 2.453-4.131 5.923-4.131 10.413 0 2.036.301 3.782.904 5.24a11.55 11.55 0 0 0 2.637 3.887c1.156 1.135 2.58 2.152 4.271 3.056 1.688.902 3.619 1.794 5.797 2.672 1.849.788 3.538 1.527 5.065 2.222 1.528.695 2.848 1.447 3.957 2.257 1.11.809 1.968 1.723 2.569 2.742s.903 2.245.903 3.678c0 2.361-.788 4.085-2.362 5.173-1.573 1.088-3.679 1.632-6.315 1.632-1.667 0-3.16-.221-4.479-.66s-2.464-1.169-3.437-2.188c-.971-1.017-1.746-2.336-2.324-3.957-.58-1.619-.938-3.585-1.077-5.9H334v16.8h5.97l.765-4.026c1.434 1.667 3.065 2.881 4.895 3.646 1.827.762 4.06 1.145 6.698 1.145 2.361 0 4.583-.29 6.664-.868 2.082-.577 3.898-1.457 5.45-2.638a12.471 12.471 0 0 0 3.644-4.408c.878-1.758 1.32-3.794 1.32-6.109-.001-1.713-.28-3.242-.834-4.583z"/></symbol><symbol id="icon-menu" viewBox="0 0 21 20"><path d="M0 16h21v4H0zM0 0h21v4H0zm0 8h21v4H0z"/></symbol><symbol id="icon-mobile" viewBox="0 0 19 35"><path d="M18 0H1a1 1 0 0 0-1 1v33a1 1 0 0 0 1 1h17a1 1 0 0 0 1-1V1a1 1 0 0 0-1-1zM9.5 33.5a1.5 1.5 0 1 1 0-3 1.5 1.5 0 0 1 0 3zm7.5-5.867a.876.876 0 0 1-.884.867H2.885A.877.877 0 0 1 2 27.633V3.367c0-.479.396-.867.885-.867h13.231c.488 0 .884.389.884.867v24.266z"/></symbol><symbol id="icon-mute" viewBox="0 0 7 13"><path d="M0 4.086v4.666h3.111L7 12.819V.019L3.111 4.086z"/></symbol><symbol id="icon-pause" viewBox="0 0 34 34"><circle fill="#c81b1b" cx="17" cy="17" r="17"/><path fill="#fff" d="M11 10h4v14h-4zm8 0h4v14h-4z"/></symbol><symbol id="icon-play" viewBox="0 0 34 34"><circle fill="#c81b1b" cx="17" cy="17" r="17"/><path fill="#fff" d="M13 10l12 7-12 7z"/></symbol><symbol id="icon-printer" viewBox="0 0 22 22"><path d="M10 4.1h6.1c.6.1.9.6.7 1.2-.5 1.5-1.1 2.9-1.6 4.4h2.1c.4 0 .6.1.8.2.2.2.3.4.4.7v6.2c-.1.5-.4.8-.9.9h-13c-.5-.1-.8-.4-.9-.9v-6.2c0-.3.2-.6.4-.7.2-.2.4-.2.9-.2h2.2c.6-1.5 1.1-3.1 1.7-4.6 0-.3.1-.5.3-.6.2-.2.5-.3.8-.4zm.8.9h-.7c-.3 0-.4.2-.5.4-.5 1.4-1 2.9-1.5 4.2h6.1c.6-1.6 1.1-3.1 1.7-4.7-1.7.1-3.4.1-5.1.1zm6.8 11.8c.1-.1 0-.2 0-.4v-5.9c-.1-.1-.6 0-.8 0H4.7c-.2 0-.1.2-.1.4V16c0 .2 0 .7.1.7.1.1.5 0 .7 0v-2c.1-.3.5-.3.9-.3H16c.5 0 .9-.1 1 .3v2c.1.1.4.3.6.1zM6.1 15.5v1.4H16v-1.4c-3.3-.1-6.6-.1-9.9 0 0-.1 0 0 0 0z"/></symbol><symbol id="icon-reload" viewBox="0 0 34 29"><path d="M33.82 22.619l-8.84 3.38-3.38-8.842 3.958 1.769c1.67-3.432 1.085-7.694-1.76-10.542a9.226 9.226 0 0 0-10.416-1.826L11.27 2.056a14.217 14.217 0 0 1 16.045 2.812c4.344 4.344 5.272 10.828 2.785 16.087l3.72 1.664zM6.866 24.45c4.21 4.21 10.658 5.34 16.045 2.812l-2.115-4.502a9.226 9.226 0 0 1-10.414-1.826c-2.846-2.848-3.43-7.11-1.759-10.543l3.957 1.769L9.2 3.318.358 6.7l3.721 1.663c-2.485 5.26-1.557 11.744 2.787 16.088z"/></symbol><symbol id="icon-rss" viewBox="0 0 24 24"><path d="M12 20h4c0-6.629-5.372-12-12-12v4a8 8 0 0 1 8 8z"/><path d="M20 20h4C24 8.951 15.048 0 4 0v4c8.839 0 16 7.161 16 16z"/><circle cx="4" cy="20" r="4"/></symbol><symbol id="icon-search" viewBox="0 0 14 14"><path d="M9.3 1.3C7.1-.6 3.7-.4 1.7 1.7-.4 3.8-.5 7.1 1.3 9.4c1.9 2.3 5.2 2.7 7.6 1.1l3.6 3.6 1.5-1.5L10.4 9c1.7-2.5 1.2-5.8-1.1-7.7zm-3.6 8.9c-1.2 0-2.3-.5-3.1-1.3-.9-.9-1.3-2-1.3-3.2 0-1.6.8-3 2.2-3.8 1.4-.8 3.1-.8 4.4 0 1.4.8 2.2 2.3 2.2 3.8 0 2.5-1.9 4.5-4.4 4.5z"/></symbol><symbol id="icon-swipe-left" viewBox="0 0 26 29"><path d="M9 5H1.95L5.2 8.25 4.45 9l-4.5-4.5L4.45 0l.75.75L1.95 4h7.1a2.497 2.497 0 0 1 2.45-2C12.89 2 14 3.123 14 4.508v4.99A2.493 2.493 0 0 1 15.5 9c1.083 0 1.995.677 2.346 1.628.44-.39 1.02-.628 1.654-.628 1.39 0 2.5 1.118 2.5 2.498v.013a2.495 2.495 0 0 1 1.5-.497c1.39 0 2.5 1.12 2.5 2.5V20.5a8.5 8.5 0 0 1-8.5 8.5c-3.113 0-6.398-1.453-8.66-5.572-3.263-5.945-7.436-9.845-5.449-11.832 1.422-1.422 3.654-.058 5.609 1.77V5zm8.499 23C21.642 28 25 24.415 25 20.5c0 0 0 2.313 0 0v-5.998a1.5 1.5 0 0 0-3 0V15h-1v-2.494a1.5 1.5 0 1 0-3 0V14h-1v-2.494a1.5 1.5 0 1 0-3 0V15h-1V4.505a1.499 1.499 0 1 0-3 0V15.8c-2.058-2.2-4.768-4.62-5.879-3.504-1.087 1.093 1.714 4.105 5.626 10.687C11.51 25.95 13.74 28 17.5 28z"/></symbol><symbol id="icon-symbol--small" viewBox="0 0 14 17"><path fill="#fff" d="M0 14.016h11.936L13.773 17H0v-2.984zM0 9.35v2.964h10.89L9.067 9.35H0zm11.683-1.7H0V4.68h12.465c.007.116.01.234.009.354-.011 1.105-.276 1.957-.79 2.615zM5.994 0H0v2.98h12.093C11.218.944 8.918 0 5.994 0z"/></symbol><symbol id="icon-symbol" viewBox="0 0 26 26"><path d="M0 21.435h18.256L21.063 26H0v-4.565zm0-7.136v4.535h16.655l-2.788-4.535H0zM17.868 11.7H0V7.157h19.065c.01.179.014.358.012.542-.015 1.691-.42 2.994-1.209 4.001M9.167 0H0v4.558h18.494C17.158 1.443 13.64 0 9.167 0"/></symbol><symbol id="icon-top" viewBox="0 0 50 26"><path d="M18 0h14v6H18z"/><path fill="#c81b1b" d="M8 10h34v6H8z"/><path d="M0 20h50v6H0z"/></symbol><symbol id="icon-twitter--footer" viewBox="0 0 25 21"><path d="M22.054 3.214A5.135 5.135 0 0 0 24.31.377a10.28 10.28 0 0 1-3.259 1.243 5.13 5.13 0 0 0-8.87 3.51c0 .402.042.792.131 1.167A14.56 14.56 0 0 1 1.74.936a5.136 5.136 0 0 0-.694 2.583c0 1.777.906 3.349 2.281 4.269a5.122 5.122 0 0 1-2.323-.641v.063a5.131 5.131 0 0 0 4.115 5.03 5.099 5.099 0 0 1-2.316.089 5.132 5.132 0 0 0 4.791 3.563 10.296 10.296 0 0 1-6.37 2.195c-.414 0-.823-.023-1.224-.072a14.514 14.514 0 0 0 7.861 2.305c9.437 0 14.594-7.815 14.594-14.595 0-.222-.004-.444-.015-.663A10.36 10.36 0 0 0 25 2.406c-.92.408-1.909.683-2.946.808z"/></symbol><symbol id="icon-twitter" viewBox="0 0 22 22"><path d="M20.1 5.3c-.6.3-1.3.5-2 .6.7-.4 1.3-1.1 1.5-1.9-.7.4-1.4.7-2.2.8-.6-.7-1.5-1.1-2.6-1.1-1.9 0-3.5 1.6-3.5 3.5 0 .3 0 .5.1.8-2.9-.2-5.5-1.5-7.2-3.7-.3.6-.5 1.2-.5 1.8 0 1.2.6 2.3 1.6 2.9-.6 0-1.1-.2-1.6-.4 0 1.7 1.2 3.1 2.8 3.4-.3.1-.6.1-.9.1-.2 0-.4 0-.7-.1.4 1.4 1.7 2.4 3.3 2.4C7 15.5 5.5 16 3.9 16h-.8c1.5 1 3.4 1.6 5.4 1.6 6.4 0 9.9-5.3 9.9-9.9v-.5c.6-.5 1.2-1.2 1.7-1.9"/></symbol><symbol id="icon-upload" viewBox="0 0 28 31"><path d="M28 27v-6.334h-4V27H4v-6.334H0V31h28z"/><path d="M12 21h4V10h6L14 0 6 10h6z"/></symbol><symbol id="icon-url" viewBox="0 0 22 22"><path d="M17.8 6.5c-.8-.8-1.6-1.5-2.4-2.3-.4-.4-.7-.9-1.4-1h-.2c-.4 0-.7.2-.9.4l-2.7 2.7c-.3.3-.5.5-.7.8-.1.3-.2.7-.1 1.1.1.4.3.6.6.8l1-1c0-.1-.1-.1-.2-.2l3.1-3.1 3.2 3.2.1.1-.2.2-2.9 2.9-.1-.1-1 1c.2.2.5.5.8.6.4.1.8.1 1.1-.1.3-.2.5-.4.7-.6l2.7-2.7c.2-.2.4-.5.4-.9v-.2c0-.8-.5-1.2-.9-1.6z"/><path d="M7.9 12c0 .2.1.2.2.3l1.5 1.5c.1.1.2.2.3.2.2 0 .3-.1.4-.2l4-4c.1-.1.2-.2.2-.4 0-.1-.1-.2-.2-.3l-1.4-1.4c-.1-.1-.2-.2-.4-.2-.1 0-.3.2-.3.2l-4 4-.3.3z"/><path d="M12.5 12.4l-1 1 .2.2-2.9 2.9-.2.2-.2-.2-3.1-3.1 3.1-3.1.2.2 1-1c-.3-.3-.5-.5-.9-.6-.3-.1-.8-.1-1.1.1-.2.2-.5.4-.7.7l-2.7 2.7c-.2.2-.4.5-.4.9v.2c.1.7.5 1 .9 1.4L7 17.2c.4.4.7.9 1.4.9h.2c.4 0 .7-.2.9-.4l2.7-2.7c.2-.2.5-.4.6-.7.2-.3.2-.7.1-1.1.1-.3-.2-.6-.4-.8z"/></symbol><symbol id="icon-user" viewBox="0 0 30 35"><circle cx="16" cy="6.5" r="6.5"/><path d="M31 26.818C30.332 20.149 25.958 15 20.772 15h-9.545C6.041 15 1.667 20.149.999 26.818V35h5.704v-7.637c0-.754.672-1.363 1.5-1.363s1.5.609 1.5 1.363V35H23v-7.637c0-.754.672-1.363 1.5-1.363.829 0 1.5.609 1.5 1.363V35h5v-8.182z"/></symbol><symbol id="icon-weather--j" viewBox="0 0 20 20"><path d="M0 10.004a.796.796 0 0 0 .803.813h1.923a.7.7 0 0 0 .543-.24.824.824 0 0 0 .216-.573.808.808 0 0 0-.216-.569.708.708 0 0 0-.543-.233H.803a.772.772 0 0 0-.565.238.772.772 0 0 0-.238.564zm2.69-6.52c0 .218.074.41.221.574L4.296 5.4c.142.147.327.22.556.22.224 0 .41-.07.56-.211a.707.707 0 0 0 .225-.538.87.87 0 0 0-.229-.6L4.067 2.929c-.382-.3-.767-.3-1.156 0a.792.792 0 0 0-.22.556zm0 13.031c0 .218.074.409.221.574a.915.915 0 0 0 .6.229.796.796 0 0 0 .556-.23l1.341-1.384a.72.72 0 0 0 .23-.556.76.76 0 0 0-.226-.56.76.76 0 0 0-.56-.225.72.72 0 0 0-.556.229l-1.385 1.341a.825.825 0 0 0-.22.582zm2.4-6.51c0 .876.221 1.692.662 2.448a4.912 4.912 0 0 0 1.795 1.795 4.774 4.774 0 0 0 2.449.662c.658 0 1.29-.131 1.896-.393a4.982 4.982 0 0 0 1.566-1.05c.438-.438.787-.96 1.046-1.566a4.78 4.78 0 0 0 .388-1.897c0-.882-.22-1.7-.657-2.452a4.865 4.865 0 0 0-1.787-1.787 4.79 4.79 0 0 0-2.452-.657c-.883 0-1.7.22-2.453.657a4.899 4.899 0 0 0-1.79 1.787 4.766 4.766 0 0 0-.663 2.452zm1.597 0c0-.918.322-1.702.966-2.352a3.175 3.175 0 0 1 2.343-.975c.917 0 1.7.325 2.35.975.65.65.976 1.434.976 2.351 0 .906-.325 1.68-.975 2.32a3.226 3.226 0 0 1-2.351.962 3.2 3.2 0 0 1-2.338-.961 3.147 3.147 0 0 1-.97-2.32zM9.193 2.69a.76.76 0 0 0 .234.564.78.78 0 0 0 .569.23c.229 0 .42-.077.573-.23a.767.767 0 0 0 .23-.564V.82a.8.8 0 0 0-.234-.583.767.767 0 0 0-.57-.238.767.767 0 0 0-.568.238.8.8 0 0 0-.234.582v1.87zm0 14.583v1.923c0 .218.08.406.238.565a.772.772 0 0 0 .565.238c.217 0 .405-.08.564-.238a.772.772 0 0 0 .238-.565v-1.923a.708.708 0 0 0-.233-.543.808.808 0 0 0-.57-.216.808.808 0 0 0-.568.216.708.708 0 0 0-.234.543zM14.389 4.87a.7.7 0 0 0 .212.53c.14.146.317.22.53.22a.767.767 0 0 0 .564-.22l1.376-1.342a.817.817 0 0 0 .23-.573.757.757 0 0 0-.23-.556c-.376-.294-.753-.294-1.13 0l-1.34 1.341a.87.87 0 0 0-.212.6zm0 10.278c0 .235.07.42.212.556l1.34 1.385a.796.796 0 0 0 1.126-.01.779.779 0 0 0 .233-.564.789.789 0 0 0-.229-.582l-1.376-1.341a.827.827 0 0 0-.565-.23.697.697 0 0 0-.53.226.786.786 0 0 0-.21.56zm2.126-5.144a.83.83 0 0 0 .23.583c.153.153.332.23.538.23h1.905a.78.78 0 0 0 .57-.244.78.78 0 0 0 .242-.569.765.765 0 0 0-.243-.564.786.786 0 0 0-.569-.238h-1.905c-.218 0-.4.078-.547.233a.799.799 0 0 0-.22.57z"/></symbol><symbol id="icon-weather--m" viewBox="0 0 23 16"><path d="M22.4 12.342a.734.734 0 0 0-.229-.552.787.787 0 0 0-.568-.22H4.715a.752.752 0 0 0-.555.216.752.752 0 0 0-.218.556c-.004.2.079.39.226.526a.77.77 0 0 0 .547.211h16.887c.21.007.414-.07.568-.213a.688.688 0 0 0 .23-.524zM20.034 9.5a.694.694 0 0 0-.238-.544.722.722 0 0 0-.534-.202H2.366a.728.728 0 0 0-.738.746c0 .215.071.398.214.546a.694.694 0 0 0 .524.225h16.896a.735.735 0 0 0 .546-.228.75.75 0 0 0 .226-.544V9.5zm-.12-2.154c0 .079-.044.119-.135.119h-1.298c-.056 0-.115-.048-.178-.146a2.822 2.822 0 0 0-.963-1.153 2.778 2.778 0 0 0-1.403-.508l-.5-.068c-.102 0-.154-.054-.154-.161l-.059-.45a3.648 3.648 0 0 0-1.243-2.447 3.744 3.744 0 0 0-2.573-.98 3.73 3.73 0 0 0-2.558.968 3.64 3.64 0 0 0-1.243 2.425l-.067.517c0 .102-.06.154-.178.154H5.92c-.582 0-1.112.154-1.59.466-.468.3-.838.73-1.064 1.238-.063.096-.125.145-.187.145H1.781c-.107 0-.149-.068-.127-.204a4.227 4.227 0 0 1 1.577-2.274 4.371 4.371 0 0 1 2.688-.881h.289a5.314 5.314 0 0 1 1.896-2.957A5.163 5.163 0 0 1 11.408 0c1.266 0 2.392.398 3.376 1.192a5.296 5.296 0 0 1 1.89 3.04c.76.177 1.46.555 2.024 1.094.572.536.99 1.216 1.21 1.968v-.033a.306.306 0 0 1 .007.085zm-1.457 7.768a.688.688 0 0 0-.238-.534.734.734 0 0 0-.544-.204H.772a.768.768 0 0 0-.546.213.694.694 0 0 0-.225.526c0 .215.076.398.229.552a.74.74 0 0 0 .543.228h16.904c.21 0 .392-.078.546-.233a.75.75 0 0 0 .235-.548h-.001z"/></symbol><symbol id="icon-weather--md" viewBox="0 0 20 20"><path d="M20 9.173A4.658 4.658 0 0 0 18.973 6.2a4.718 4.718 0 0 0-2.646-1.696 5.663 5.663 0 0 0-2.03-3.238C13.244.423 12.037.001 10.674.001c-1.327 0-2.51.411-3.55 1.234a5.631 5.631 0 0 0-2.031 3.17h-.308c-.862 0-1.661.213-2.397.639A4.73 4.73 0 0 0 .642 6.78 4.659 4.659 0 0 0 0 9.173c0 1.278.446 2.379 1.339 3.302.892.922 1.978 1.405 3.256 1.447.127 0 .19-.054.19-.163v-1.284c0-.115-.063-.172-.19-.172-.82-.042-1.521-.37-2.103-.982-.582-.612-.873-1.328-.873-2.148 0-.856.31-1.595.932-2.216.621-.621 1.366-.932 2.234-.932h1.556c.115 0 .172-.054.172-.163l.072-.56A3.963 3.963 0 0 1 7.93 2.677c.787-.705 1.702-1.058 2.745-1.058a3.97 3.97 0 0 1 2.763 1.067 3.991 3.991 0 0 1 1.326 2.65l.054.48c0 .12.063.18.19.18l.506.064a2.98 2.98 0 0 1 2.022 1c.546.6.819 1.304.819 2.112 0 .82-.291 1.536-.873 2.148-.582.612-1.283.94-2.103.982-.109 0-.163.057-.163.172v1.284c0 .109.054.163.163.163 1.29-.042 2.383-.525 3.279-1.447C19.552 11.552 20 10.45 20 9.173zm-5.31 7.426a.791.791 0 0 0-.796-.796.777.777 0 0 0-.796.796.777.777 0 0 0 .796.796.777.777 0 0 0 .796-.796zm-.832-3.5a.773.773 0 0 0-.23-.561.761.761 0 0 0-.566-.235.761.761 0 0 0-.565.235.773.773 0 0 0-.231.56c0 .23.077.424.23.584.154.16.343.24.566.24.223 0 .412-.08.565-.24a.81.81 0 0 0 .231-.583zm-1.836 5.391a.842.842 0 0 0-.245-.588.755.755 0 0 0-.551-.235.802.802 0 0 0-.588.244.791.791 0 0 0-.245.579c0 .223.082.412.245.565a.826.826 0 0 0 .588.231.773.773 0 0 0 .56-.23.761.761 0 0 0 .236-.566zm-.832-3.528a.849.849 0 0 0-.236-.597.766.766 0 0 0-.56-.235.791.791 0 0 0-.58.244.802.802 0 0 0-.244.588c0 .223.08.415.24.575.16.16.354.24.583.24.218 0 .405-.08.561-.24a.791.791 0 0 0 .236-.575zm-.408-3.491a.791.791 0 0 0-.244-.58.796.796 0 0 0-.552-.235.81.81 0 0 0-.588.24.776.776 0 0 0-.244.575.75.75 0 0 0 .244.565c.163.154.36.23.588.23a.773.773 0 0 0 .561-.23.761.761 0 0 0 .235-.565zm-2.288 5.128a.827.827 0 0 0-.235-.578.822.822 0 0 0-.58-.218.773.773 0 0 0-.795.796.773.773 0 0 0 .796.796.794.794 0 0 0 .579-.23.761.761 0 0 0 .235-.566zm-.823-3.5a.757.757 0 0 0-.244-.557.799.799 0 0 0-.58-.24.761.761 0 0 0-.565.236.773.773 0 0 0-.23.56c0 .23.076.424.23.584.154.16.342.24.566.24a.785.785 0 0 0 .583-.244.799.799 0 0 0 .24-.58z"/></symbol><symbol id="icon-weather--mds" viewBox="0 0 20 20"><path d="M20 9.18c0 1.273-.45 2.372-1.349 3.295-.9.924-1.989 1.407-3.268 1.449-.115 0-.172-.054-.172-.163v-1.286c0-.114.057-.172.172-.172.814-.042 1.515-.37 2.1-.982.586-.613.878-1.326.878-2.141a3.04 3.04 0 0 0-.82-2.114 2.978 2.978 0 0 0-2.023-1l-.507-.073c-.12 0-.18-.057-.18-.172l-.073-.48a3.958 3.958 0 0 0-1.318-2.653 3.972 3.972 0 0 0-2.765-1.068c-1.045 0-1.96.353-2.744 1.06a4.004 4.004 0 0 0-1.349 2.616l-.063.561c0 .115-.06.172-.181.172H4.789c-.869 0-1.614.31-2.236.933-.622.621-.932 1.36-.932 2.218 0 .815.29 1.528.873 2.141s1.284.94 2.105.982c.127 0 .19.058.19.172v1.286c0 .109-.063.163-.19.163-1.285-.042-2.373-.524-3.264-1.444C.445 11.56 0 10.46 0 9.18c0-.863.214-1.662.643-2.395A4.733 4.733 0 0 1 2.39 5.047a4.713 4.713 0 0 1 2.4-.639h.298a5.69 5.69 0 0 1 2.037-3.173 5.554 5.554 0 0 1 3.55-1.236c1.358 0 2.565.423 3.621 1.268a5.613 5.613 0 0 1 2.028 3.232c1.087.278 1.97.846 2.653 1.707C19.659 7.066 20 8.057 20 9.18zm-5.224 6.781a.893.893 0 0 1-.159.49.801.801 0 0 1-.457.334.827.827 0 0 1-.615-.036c-.188-.09-.314-.272-.38-.543l-.136-.589a.829.829 0 0 1 .09-.611.817.817 0 0 1 .498-.385.747.747 0 0 1 .62.073.812.812 0 0 1 .385.516l.136.57a.635.635 0 0 1 .018.181zm-.733-2.797a.763.763 0 0 1-.245.552.715.715 0 0 1-.543.244.796.796 0 0 1-.58-.23.762.762 0 0 1-.235-.566.76.76 0 0 1 .235-.566.796.796 0 0 1 .58-.231.773.773 0 0 1 .788.797zm-.589-2.2a.659.659 0 0 1-.131.439c-.1.141-.255.245-.467.312a.762.762 0 0 1-.597-.068.79.79 0 0 1-.398-.493l-.272-.87c-.072-.235-.051-.445.063-.629a.868.868 0 0 1 .525-.376.75.75 0 0 1 .612.064.808.808 0 0 1 .393.48l.236.887c0 .018.006.056.018.113a.712.712 0 0 1 .018.14zm-1.123 8.012c0 .17-.05.33-.149.48a.793.793 0 0 1-.466.317c-.079.018-.16.027-.245.027-.41 0-.664-.196-.76-.589l-.136-.57a.852.852 0 0 1 .081-.66.72.72 0 0 1 .507-.354.732.732 0 0 1 .607.068c.2.112.332.276.398.493l.136.57c.018.085.027.158.027.218zm-.751-2.807a.772.772 0 0 1-.245.562.756.756 0 0 1-.552.235.773.773 0 0 1-.797-.797.773.773 0 0 1 .797-.788.773.773 0 0 1 .797.788zm-.607-2.19a.743.743 0 0 1-.126.452.62.62 0 0 1-.435.29.828.828 0 0 1-.616-.055c-.187-.096-.32-.277-.398-.543l-.263-.869a.728.728 0 0 1 .068-.607.832.832 0 0 1 .512-.389.731.731 0 0 1 .615.077c.2.118.332.288.399.512l.217.869c.018.078.027.166.027.262zm-2.662 2.073a.83.83 0 0 1-.149.461.788.788 0 0 1-.448.317.693.693 0 0 0-.131.018.693.693 0 0 1-.132.019c-.392 0-.636-.212-.733-.634l-.136-.58a.742.742 0 0 1 .064-.606.805.805 0 0 1 .488-.399.86.86 0 0 1 .657.077.828.828 0 0 1 .394.512l.09.57a.62.62 0 0 0 .018.118.627.627 0 0 1 .018.127zM7.596 13.2a.724.724 0 0 1-.244.552.719.719 0 0 1-.553.235.773.773 0 0 1-.796-.787.773.773 0 0 1 .796-.797.773.773 0 0 1 .797.797zm-.588-2.237a.79.79 0 0 1-.159.467.845.845 0 0 1-.475.312.795.795 0 0 0-.118.018.763.763 0 0 1-.136.018.858.858 0 0 1-.344-.09.77.77 0 0 1-.398-.507l-.235-.87a.77.77 0 0 1 .072-.61.815.815 0 0 1 .489-.385.774.774 0 0 1 .996.543l.271.878c0 .024.007.062.019.113a.555.555 0 0 1 .018.113z"/></symbol><symbol id="icon-weather--ms" viewBox="0 0 20 20"><path d="M20 9.173A4.658 4.658 0 0 0 18.973 6.2a4.718 4.718 0 0 0-2.646-1.696 5.663 5.663 0 0 0-2.03-3.238C13.244.423 12.037.001 10.674.001c-1.327 0-2.51.411-3.55 1.234a5.631 5.631 0 0 0-2.031 3.17h-.308c-.862 0-1.661.213-2.397.639A4.73 4.73 0 0 0 .642 6.78 4.659 4.659 0 0 0 0 9.173c0 1.278.446 2.379 1.339 3.302.892.922 1.978 1.405 3.256 1.447.127 0 .19-.054.19-.163v-1.284c0-.115-.063-.172-.19-.172-.82-.042-1.521-.37-2.103-.982-.582-.612-.873-1.328-.873-2.148 0-.856.31-1.595.932-2.216.621-.621 1.366-.932 2.234-.932h1.556c.115 0 .172-.054.172-.163l.072-.56A3.963 3.963 0 0 1 7.93 2.677c.787-.705 1.702-1.058 2.745-1.058a3.97 3.97 0 0 1 2.763 1.067 3.991 3.991 0 0 1 1.326 2.65l.054.48c0 .12.063.18.19.18l.506.064a2.98 2.98 0 0 1 2.022 1c.546.6.819 1.304.819 2.112 0 .82-.291 1.536-.873 2.148-.582.612-1.283.94-2.103.982-.109 0-.163.057-.163.172v1.284c0 .109.054.163.163.163 1.29-.042 2.383-.525 3.279-1.447C19.552 11.552 20 10.45 20 9.173zm-6.142 3.926a.773.773 0 0 0-.23-.561.761.761 0 0 0-.566-.235.761.761 0 0 0-.565.235.773.773 0 0 0-.231.56c0 .23.077.424.23.584.154.16.343.24.566.24.223 0 .412-.08.565-.24a.81.81 0 0 0 .231-.583zm0 3.5a.787.787 0 0 0-.235-.578.778.778 0 0 0-.561-.218.777.777 0 0 0-.796.796.777.777 0 0 0 .796.796.777.777 0 0 0 .796-.796zm-3.076-1.637a.852.852 0 0 0-.244-.597.755.755 0 0 0-.552-.235.799.799 0 0 0-.583.249.799.799 0 0 0-.249.583c0 .223.082.415.244.575a.81.81 0 0 0 .588.24c.218 0 .404-.08.561-.24a.791.791 0 0 0 .235-.575zm0-3.491a.791.791 0 0 0-.244-.58.796.796 0 0 0-.552-.235.81.81 0 0 0-.588.24.776.776 0 0 0-.244.575.75.75 0 0 0 .244.565c.163.154.36.23.588.23a.773.773 0 0 0 .561-.23.761.761 0 0 0 .235-.565zm0 7.019a.842.842 0 0 0-.244-.588.755.755 0 0 0-.552-.235.802.802 0 0 0-.588.244.791.791 0 0 0-.244.579c0 .223.082.412.244.565.163.154.36.231.588.231a.773.773 0 0 0 .561-.23.761.761 0 0 0 .235-.566zm-3.111-5.391a.757.757 0 0 0-.244-.557.799.799 0 0 0-.58-.24.761.761 0 0 0-.565.236.773.773 0 0 0-.23.56c0 .23.076.424.23.584.154.16.342.24.566.24a.785.785 0 0 0 .583-.244.799.799 0 0 0 .24-.58zm0 3.5a.832.832 0 0 0-.244-.578.822.822 0 0 0-.58-.218.773.773 0 0 0-.795.796.773.773 0 0 0 .796.796.81.81 0 0 0 .583-.23.754.754 0 0 0 .24-.566z"/></symbol><symbol id="icon-weather--o" viewBox="0 0 25 20"><path d="M25 14.877c0 .838-.205 1.61-.615 2.32a4.536 4.536 0 0 1-1.67 1.678 4.493 4.493 0 0 1-2.301.615H10.34a4.539 4.539 0 0 1-2.31-.615 4.55 4.55 0 0 1-1.684-1.679 4.53 4.53 0 0 1-.618-2.319c0-.616.131-1.236.392-1.857-.709-.866-1.064-1.893-1.064-3.079 0-.662.128-1.295.384-1.896a4.877 4.877 0 0 1 1.04-1.556A4.868 4.868 0 0 1 8.035 5.45a4.799 4.799 0 0 1 1.897-.383c1.378 0 2.58.54 3.61 1.62.72-.405 1.558-.61 2.512-.61 1.307 0 2.465.406 3.47 1.217a5.421 5.421 0 0 1 1.936 3.117c1.04.238 1.89.774 2.55 1.605.66.832.99 1.783.99 2.86zm-1.587 0c0-.778-.26-1.45-.78-2.014a3.069 3.069 0 0 0-1.958-.986l-.463-.025c-.116 0-.174-.056-.174-.166l-.06-.506a3.99 3.99 0 0 0-1.31-2.525 3.763 3.763 0 0 0-2.614-1.015 3.875 3.875 0 0 0-2.673 1.02 3.743 3.743 0 0 0-1.277 2.52l-.07.54c-.024.105-.088.157-.193.157h-1.5c-.818 0-1.525.297-2.118.89s-.89 1.297-.89 2.11c0 .843.296 1.563.886 2.158a2.88 2.88 0 0 0 2.122.894h10.073c.812 0 1.516-.3 2.11-.903a2.956 2.956 0 0 0 .889-2.15v.002zM17.178 3.463a.826.826 0 0 1-.228.586l-.61.592c-.232.175-.43.253-.592.235a.693.693 0 0 1-.515-.24.812.812 0 0 1-.226-.579.688.688 0 0 1 .243-.55l.55-.61a.828.828 0 0 1 1.141.004.76.76 0 0 1 .237.563zm-4.97 4.117c-.646-.623-1.404-.934-2.276-.934-.918 0-1.7.32-2.34.96a3.172 3.172 0 0 0-.964 2.338c0 .58.156 1.15.47 1.708a4.452 4.452 0 0 1 3.243-1.335h.298c.232-1.011.755-1.924 1.569-2.737zM10.7 2.669c0 .239-.072.431-.217.575a.745.745 0 0 1-.55.218.778.778 0 0 1-.575-.217.778.778 0 0 1-.218-.575V.768a.737.737 0 0 1 .223-.55.781.781 0 0 1 .57-.218.745.745 0 0 1 .767.767V2.67zM5.565 4.806c0 .238-.07.43-.21.575-.198.15-.389.226-.575.226-.169 0-.353-.075-.55-.226L2.895 4.048a.86.86 0 0 1-.226-.594.76.76 0 0 1 .226-.558.749.749 0 0 1 .55-.227.7.7 0 0 1 .54.227L5.354 4.23c.137.16.211.364.21.575l.001.001zM4.824 15.81a.831.831 0 0 1-.236.585l-.602.584a.703.703 0 0 1-.541.226.737.737 0 0 1-.552-.231.803.803 0 0 1-.223-.579.738.738 0 0 1 .226-.541l.602-.601a.729.729 0 0 1 .532-.228.77.77 0 0 1 .563.227.75.75 0 0 1 .23.558zM3.46 9.941a.696.696 0 0 1-.244.541.769.769 0 0 1-.566.227H.75a.72.72 0 0 1-.537-.218.752.752 0 0 1-.213-.55c0-.22.071-.407.212-.562A.7.7 0 0 1 .75 9.15h1.9a.788.788 0 0 1 .573.235c.153.144.24.346.238.558V9.94z"/></symbol><symbol id="icon-weather--ob" viewBox="0 0 20 20"><path d="M19.698 11.747a3.48 3.48 0 0 1-1.02 2.513 3.586 3.586 0 0 1-2.488 1.12c-.083 0-.124-.042-.124-.124v-1.003c0-.087.041-.13.124-.13a2.411 2.411 0 0 0 1.606-.759 2.26 2.26 0 0 0 .652-1.617c0-.613-.207-1.147-.62-1.603a2.258 2.258 0 0 0-1.535-.758l-.385-.055c-.096 0-.144-.042-.144-.124l-.041-.37a2.979 2.979 0 0 0-1.006-1.988 3.034 3.034 0 0 0-2.098-.8c-.796 0-1.49.265-2.083.796a3.027 3.027 0 0 0-1.02 1.991l-.048.426c0 .082-.046.124-.137.124H8.157c-.664 0-1.23.23-1.7.693a2.258 2.258 0 0 0-.703 1.668c0 .623.217 1.162.652 1.617.435.456.97.709 1.606.759.097 0 .145.043.145.13v1.003c0 .082-.048.123-.145.123-.974-.032-1.8-.4-2.475-1.105a3.525 3.525 0 0 1-1.012-2.527c0-.494.114-1 .343-1.517a3.613 3.613 0 0 1-.872-2.396c0-.522.102-1.02.306-1.493a3.88 3.88 0 0 1 .82-1.226 3.833 3.833 0 0 1 1.226-.817 3.764 3.764 0 0 1 1.486-.302c1.13 0 2.078.423 2.842 1.27a4.428 4.428 0 0 1 1.943-.453 4.3 4.3 0 0 1 2.757.954 4.239 4.239 0 0 1 1.534 2.465A3.52 3.52 0 0 1 18.908 9.5c.527.657.79 1.406.79 2.248zM14.205 20h-.22l-3.892-5.747c-.028-.032-.033-.065-.017-.1.016-.034.049-.05.1-.05h1.599l-1.682-3.083c-.055-.106-.02-.158.103-.158h2.156c.06 0 .112.034.158.103l1.579 4.188c.018.1-.016.15-.103.15H12.4L14.205 20zM13.56 2.733c0 .183-.06.334-.179.453l-.48.473c-.307.234-.602.234-.886 0a.677.677 0 0 1-.178-.466c0-.17.06-.314.178-.433l.467-.474a.663.663 0 0 1 .453-.185.6.6 0 0 1 .44.185.608.608 0 0 1 .185.447zm-3.913 3.24a2.469 2.469 0 0 0-1.813-.748c-.714 0-1.323.254-1.826.762a2.527 2.527 0 0 0-.756 1.847c0 .444.124.886.371 1.325.714-.687 1.559-1.03 2.534-1.03h.226a4.234 4.234 0 0 1 1.264-2.156zM8.459 2.101a.603.603 0 0 1-.625.632.58.58 0 0 1-.433-.175.624.624 0 0 1-.171-.457V.604A.586.586 0 0 1 7.834 0a.62.62 0 0 1 .443.172.57.57 0 0 1 .182.432v1.497zM4.422 3.797a.58.58 0 0 1-.2.44c-.132.123-.267.185-.405.185-.119 0-.27-.062-.453-.186l-1.057-1.05a.655.655 0 0 1-.185-.46.6.6 0 0 1 .182-.447.609.609 0 0 1 .868.007l1.05 1.05c.133.143.2.296.2.46zm-.598 8.658a.64.64 0 0 1-.178.446l-.474.48a.581.581 0 0 1-.426.179.63.63 0 0 1-.625-.645.55.55 0 0 1 .186-.42l.453-.48a.692.692 0 0 1 .453-.172c.17 0 .314.06.433.179a.59.59 0 0 1 .178.433zM2.76 7.834c0 .16-.064.3-.192.419a.6.6 0 0 1-.44.185H.632a.627.627 0 0 1-.447-.175.567.567 0 0 1-.185-.43.6.6 0 0 1 .189-.445.612.612 0 0 1 .443-.186h1.496a.61.61 0 0 1 .443.186.603.603 0 0 1 .19.446z"/></symbol><symbol id="icon-weather--od" viewBox="0 0 20 20"><path d="M20 11.889c0 .989-.344 1.838-1.033 2.547a3.624 3.624 0 0 1-2.516 1.134c-.088 0-.132-.042-.132-.125v-.991c0-.088.044-.132.132-.132a2.314 2.314 0 0 0 1.618-.759 2.362 2.362 0 0 0 .67-1.674c0-.615-.21-1.149-.628-1.602a2.448 2.448 0 0 0-1.556-.79l-.396-.028c-.097 0-.145-.044-.145-.131l-.049-.41a3.008 3.008 0 0 0-1.015-2.006 3.063 3.063 0 0 0-2.118-.808 3.1 3.1 0 0 0-2.118.808 3.012 3.012 0 0 0-1.036 2.007l-.056.43c0 .092-.041.138-.125.138H8.298c-.66 0-1.233.237-1.716.71-.483.474-.724 1.035-.724 1.682 0 .642.224 1.2.672 1.674.449.474.99.727 1.623.76.097 0 .145.043.145.13v.992c0 .083-.048.125-.145.125a3.51 3.51 0 0 1-2.51-1.12 3.573 3.573 0 0 1-1.026-2.561c0-.55.102-1.045.305-1.484a3.774 3.774 0 0 1-.873-2.46c0-.699.175-1.347.526-1.945A3.935 3.935 0 0 1 6 4.575a3.775 3.775 0 0 1 1.945-.527c1.155 0 2.116.432 2.883 1.297.592-.324 1.26-.486 2.004-.486a4.34 4.34 0 0 1 2.783.97 4.33 4.33 0 0 1 1.564 2.49 3.585 3.585 0 0 1 2.024 1.289c.531.666.797 1.426.797 2.28zm-3.945 5.22a.614.614 0 0 1-.34.333.56.56 0 0 1-.467.017.53.53 0 0 1-.33-.33.587.587 0 0 1-.017-.478.553.553 0 0 1 .33-.325.521.521 0 0 1 .46-.021c.16.064.277.18.35.346.07.125.075.278.014.458zm-.478-2.1a.601.601 0 0 1-.07.284c-.142.226-.362.34-.658.34-.235 0-.406-.16-.513-.48l-.77-2.377a.556.556 0 0 1 .053-.496.585.585 0 0 1 .405-.273.582.582 0 0 1 .468.045c.15.08.25.204.302.37l.762 2.385c.014.07.021.137.021.201zm-1.38 4.152a.563.563 0 0 1-.367.548.54.54 0 0 1-.256.055.961.961 0 0 1-.222-.042.597.597 0 0 1-.35-.336.574.574 0 0 1 .003-.489.632.632 0 0 1 .333-.336.573.573 0 0 1 .457.004.561.561 0 0 1 .309.26.72.72 0 0 1 .094.336zm-.45-16.374c0 .184-.06.332-.18.443l-.479.479a.646.646 0 0 1-.402.2c-.152.024-.304-.033-.454-.17a.624.624 0 0 1-.045-.918l.472-.471a.67.67 0 0 1 .457-.187c.18 0 .33.06.45.18s.181.268.181.444zm-.09 14.384a.63.63 0 0 1-.118.354.621.621 0 0 1-.354.242.663.663 0 0 1-.464-.028c-.148-.06-.254-.2-.319-.422l-1.33-4.54a.617.617 0 0 1 .04-.483.573.573 0 0 1 .368-.287.636.636 0 0 1 .489.041c.15.079.25.204.301.375l1.36 4.575a1.3 1.3 0 0 1 .027.173zm-2.551-.284a.48.48 0 0 1-.049.229.591.591 0 0 1-.333.326.595.595 0 0 1-.256.055.961.961 0 0 1-.222-.041.565.565 0 0 1-.34-.326.63.63 0 0 1 .312-.804.577.577 0 0 1 .486-.021.66.66 0 0 1 .353.346.49.49 0 0 1 .049.236zm-.534-1.9a.578.578 0 0 1-.114.337.622.622 0 0 1-.53.253c-.287 0-.481-.15-.583-.45l-.763-2.35a.559.559 0 0 1 .049-.48.621.621 0 0 1 .381-.29.598.598 0 0 1 .475.041c.141.079.24.204.295.375l.755 2.364c.023.101.035.168.035.2zm-.79-8.928c-.495-.476-1.107-.714-1.837-.714a2.54 2.54 0 0 0-1.851.759 2.49 2.49 0 0 0-.77 1.84c0 .462.127.918.381 1.366.707-.712 1.572-1.068 2.593-1.068h.229A4.538 4.538 0 0 1 9.782 6.06zm-1.2-3.896a.614.614 0 0 1-.187.45.614.614 0 0 1-.45.187.573.573 0 0 1-.434-.187.633.633 0 0 1-.177-.45V.637c0-.175.06-.325.177-.45A.573.573 0 0 1 7.945 0c.175 0 .325.062.45.187a.614.614 0 0 1 .187.45v1.526zM4.478 3.854c0 .18-.062.328-.187.444a.526.526 0 0 1-.426.19.623.623 0 0 1-.447-.19L2.35 3.23a.547.547 0 0 1-.201-.443c0-.176.064-.326.19-.451a.626.626 0 0 1 .455-.187c.162 0 .302.067.423.2L4.29 3.41a.578.578 0 0 1 .187.444zm-.596 8.804c0 .167-.06.315-.18.444l-.485.464a.535.535 0 0 1-.444.201.513.513 0 0 1-.423-.2.573.573 0 0 1-.201-.444.59.59 0 0 1 .201-.45l.478-.458a.553.553 0 0 1 .43-.195c.171 0 .318.063.44.188a.62.62 0 0 1 .184.45zM2.801 7.944a.582.582 0 0 1-.194.444.626.626 0 0 1-.458.194H.645a.626.626 0 0 1-.454-.187.609.609 0 0 1-.191-.45c0-.172.062-.316.187-.434a.642.642 0 0 1 .458-.177h1.504a.65.65 0 0 1 .465.177.573.573 0 0 1 .187.433z"/></symbol><symbol id="icon-weather--ods" viewBox="0 0 20 20"><path d="M19.902 11.861c0 .98-.337 1.819-1.012 2.517s-1.507 1.07-2.496 1.116c-.088 0-.132-.042-.132-.125v-.984c0-.088.044-.132.132-.132a2.287 2.287 0 0 0 1.602-.738c.434-.46.651-1.011.651-1.654 0-.624-.208-1.164-.624-1.622a2.28 2.28 0 0 0-1.553-.762l-.388-.056c-.078 0-.118-.035-.118-.104l-.055-.409c-.092-.809-.433-1.479-1.023-2.01A3.026 3.026 0 0 0 12.79 6.1c-.808 0-1.514.265-2.118.797a2.952 2.952 0 0 0-1.022 1.99l-.049.43c-.018.082-.071.124-.159.124H8.256c-.657 0-1.22.237-1.692.71a2.336 2.336 0 0 0-.707 1.71c0 .642.217 1.193.652 1.653.434.46.968.706 1.601.738.097 0 .146.044.146.132v.984c0 .083-.049.125-.146.125-.984-.032-1.814-.4-2.489-1.102-.675-.703-1.012-1.546-1.012-2.53 0-.5.095-.994.284-1.484a3.834 3.834 0 0 1-.86-2.475c0-.522.102-1.023.306-1.5a3.87 3.87 0 0 1 .825-1.238 3.912 3.912 0 0 1 1.237-.829 3.788 3.788 0 0 1 1.508-.308c1.137 0 2.089.43 2.856 1.29a4.558 4.558 0 0 1 2.024-.486c1.045 0 1.966.323 2.763.97a4.337 4.337 0 0 1 1.535 2.496 3.5 3.5 0 0 1 2.032 1.28 3.59 3.59 0 0 1 .783 2.283zm-3.958 5.2c0 .124-.04.25-.122.374a.614.614 0 0 1-.35.257.643.643 0 0 1-.475-.028c-.145-.07-.243-.208-.294-.416l-.104-.45a.64.64 0 0 1 .458-.763.563.563 0 0 1 .47.055c.149.088.246.22.292.395l.104.437c.014.042.02.088.02.139zm-.569-2.142c0 .161-.06.302-.18.422a.547.547 0 0 1-.416.188.62.62 0 0 1-.447-.177.578.578 0 0 1-.184-.433c0-.171.061-.316.184-.434a.62.62 0 0 1 .447-.177c.17 0 .313.058.426.174.114.115.17.26.17.437zm-.45-1.685a.514.514 0 0 1-.098.336.641.641 0 0 1-.353.24.592.592 0 0 1-.461-.053.602.602 0 0 1-.309-.377l-.2-.666a.56.56 0 0 1 .048-.482.664.664 0 0 1 .402-.287.574.574 0 0 1 .468.048.62.62 0 0 1 .301.367l.18.68.022.194zm-.853 6.135c0 .125-.04.246-.118.364a.617.617 0 0 1-.36.246.864.864 0 0 1-.18.021c-.32 0-.516-.15-.59-.45l-.097-.437a.653.653 0 0 1 .062-.506.55.55 0 0 1 .389-.27.56.56 0 0 1 .464.051.63.63 0 0 1 .305.378l.097.437a.974.974 0 0 1 .028.166zm-.416-16.596c0 .176-.06.323-.18.444l-.486.471a.562.562 0 0 1-.398.19c-.164.012-.318-.051-.461-.19a.595.595 0 0 1-.18-.437c0-.175.06-.323.18-.443l.464-.479a.67.67 0 0 1 .437-.194c.171 0 .318.063.44.187a.62.62 0 0 1 .184.451zM13.49 17.22c0 .166-.06.31-.18.43a.587.587 0 0 1-.43.18.592.592 0 0 1-.61-.61.592.592 0 0 1 .61-.603.592.592 0 0 1 .61.603zm-.458-1.678a.558.558 0 0 1-.1.347.486.486 0 0 1-.337.222.634.634 0 0 1-.471-.042c-.143-.074-.245-.212-.305-.416l-.194-.665a.557.557 0 0 1 .052-.465.637.637 0 0 1 .391-.298.56.56 0 0 1 .472.06c.152.09.254.22.305.39l.166.666c.014.06.021.128.021.201zm-2.045 1.588a.643.643 0 0 1-.111.357.593.593 0 0 1-.34.24.584.584 0 0 0-.104.013.584.584 0 0 1-.104.014c-.3 0-.487-.162-.561-.485l-.104-.444a.56.56 0 0 1 .052-.465.63.63 0 0 1 .378-.305.658.658 0 0 1 .502.06c.15.085.251.215.302.391l.07.437c0 .01.003.037.01.083a.77.77 0 0 1 .01.104zm-.548-2.184a.55.55 0 0 1-.18.423.558.558 0 0 1-.43.18.592.592 0 0 1-.61-.603.592.592 0 0 1 .61-.61.592.592 0 0 1 .61.61zm-.45-1.712a.617.617 0 0 1-.569.61.584.584 0 0 1-.104.014.667.667 0 0 1-.27-.07.573.573 0 0 1-.298-.388l-.18-.665a.611.611 0 0 1 .423-.763.602.602 0 0 1 .769.416l.208.673c0 .014.003.04.01.08.007.039.01.07.01.093zm-.257-7.182c-.49-.49-1.097-.735-1.823-.735-.73 0-1.352.25-1.865.752a2.467 2.467 0 0 0-.77 1.834c0 .49.132.952.396 1.386.725-.725 1.587-1.088 2.586-1.088h.228a4.633 4.633 0 0 1 1.248-2.149zm-1.22-3.896a.578.578 0 0 1-.603.596.656.656 0 0 1-.458-.17.551.551 0 0 1-.187-.426V.631c0-.171.064-.319.19-.444A.626.626 0 0 1 7.91 0c.17 0 .314.061.43.184a.628.628 0 0 1 .173.447v1.525zM4.43 3.834a.6.6 0 0 1-.167.443c-.263.264-.561.264-.894 0l-1.06-1.06a.63.63 0 0 1-.188-.465.61.61 0 0 1 .184-.447.609.609 0 0 1 .447-.184.64.64 0 0 1 .45.18l1.061 1.096a.576.576 0 0 1 .167.437zm-.576 8.762a.566.566 0 0 1-.2.437l-.451.464a.712.712 0 0 1-.45.18.704.704 0 0 1-.444-.18.57.57 0 0 1-.188-.436.67.67 0 0 1 .188-.458l.478-.45a.54.54 0 0 1 .423-.188c.17 0 .319.063.443.188a.587.587 0 0 1 .201.443zM2.758 7.903a.56.56 0 0 1-.194.437.63.63 0 0 1-.457.2H.609a.573.573 0 0 1-.433-.186.633.633 0 0 1-.177-.451.62.62 0 0 1 .177-.447.578.578 0 0 1 .433-.184h1.498c.175 0 .328.062.457.187.13.125.194.273.194.444z"/></symbol><symbol id="icon-weather--os" viewBox="0 0 20 20"><path d="M20 11.914c0 .642-.158 1.24-.475 1.794a3.686 3.686 0 0 1-1.295 1.334 3.567 3.567 0 0 1-1.791.53c-.084 0-.126-.041-.126-.125v-.991c0-.094.042-.14.126-.14a2.335 2.335 0 0 0 1.623-.758c.45-.472.674-1.02.674-1.644 0-.615-.21-1.15-.632-1.606a2.46 2.46 0 0 0-1.56-.797l-.392-.041c-.088 0-.132-.047-.132-.14l-.056-.377a3.054 3.054 0 0 0-1.016-2.036 3.052 3.052 0 0 0-2.12-.813c-.81 0-1.519.27-2.126.813a3.012 3.012 0 0 0-1.03 2.015l-.056.433c0 .084-.042.126-.126.126h-1.2c-.671 0-1.244.238-1.719.715a2.337 2.337 0 0 0-.712 1.708c0 .624.225 1.172.674 1.644.45.473.988.725 1.616.758.094 0 .14.046.14.14v.991c0 .084-.046.126-.14.126a3.539 3.539 0 0 1-2.514-1.117c-.689-.713-1.033-1.56-1.033-2.542 0-.564.107-1.069.321-1.516a3.72 3.72 0 0 1-.88-2.458c0-.698.175-1.346.524-1.945a3.88 3.88 0 0 1 1.425-1.42A3.81 3.81 0 0 1 7.94 4.05c1.145 0 2.107.43 2.884 1.291a4.16 4.16 0 0 1 2.004-.488 4.33 4.33 0 0 1 2.787.974 4.33 4.33 0 0 1 1.557 2.49c.833.204 1.513.64 2.039 1.305.526.666.789 1.43.789 2.29zm-4.085 5.719a.622.622 0 0 1-.615.608.596.596 0 0 1-.614-.608.6.6 0 0 1 .615-.615.6.6 0 0 1 .614.615zm-.643-2.703a.635.635 0 0 1-.178.454.577.577 0 0 1-.436.189.577.577 0 0 1-.437-.189.637.637 0 0 1-.178-.454c0-.167.06-.311.178-.433a.588.588 0 0 1 .437-.181c.172 0 .318.06.436.181a.597.597 0 0 1 .178.433zm-1.41 4.155a.58.58 0 0 1-.182.426.595.595 0 0 1-.433.189.632.632 0 0 1-.45-.175.58.58 0 0 1-.185-.44.61.61 0 0 1 .188-.45.616.616 0 0 1 .447-.185c.163 0 .306.063.43.189a.616.616 0 0 1 .185.446zM13.75 2.787a.57.57 0 0 1-.182.44l-.488.488a.582.582 0 0 1-.398.189c-.154.023-.305-.032-.454-.164a.612.612 0 0 1-.224-.472c0-.181.06-.34.182-.474l.475-.454a.553.553 0 0 1 .433-.189.642.642 0 0 1 .656.636zm-.524 13.575a.642.642 0 0 1-.188.447.583.583 0 0 1-.426.182.63.63 0 0 1-.454-.182.596.596 0 0 1-.189-.447.6.6 0 0 1 .189-.443.625.625 0 0 1 .454-.185c.167 0 .312.061.433.185a.61.61 0 0 1 .181.443zm-.321-2.682c0 .168-.06.312-.182.433a.591.591 0 0 1-.432.182.625.625 0 0 1-.45-.178.582.582 0 0 1-.186-.437c0-.172.062-.318.185-.44a.62.62 0 0 1 .45-.181c.168 0 .312.06.433.182a.6.6 0 0 1 .182.44zm-1.767 3.953a.61.61 0 0 1-.174.426.638.638 0 0 1-.447.182.596.596 0 0 1-.615-.608.596.596 0 0 1 .615-.615.6.6 0 0 1 .443.179.593.593 0 0 1 .178.436zm-.635-2.703a.63.63 0 0 1-.182.454.588.588 0 0 1-.44.189.577.577 0 0 1-.436-.189.637.637 0 0 1-.178-.454c0-.167.06-.311.178-.433a.588.588 0 0 1 .436-.181.6.6 0 0 1 .44.181.591.591 0 0 1 .182.433zm-.726-8.882a2.554 2.554 0 0 0-1.837-.74c-.722 0-1.339.258-1.85.775a2.545 2.545 0 0 0-.77 1.857c0 .466.126.922.377 1.369.713-.712 1.576-1.068 2.591-1.068h.238a4.482 4.482 0 0 1 1.25-2.193zM8.582 2.165a.566.566 0 0 1-.188.433.644.644 0 0 1-.454.175.596.596 0 0 1-.615-.608V.643c0-.177.06-.328.178-.454A.577.577 0 0 1 7.94 0c.172 0 .322.064.45.192a.617.617 0 0 1 .192.45v1.523zm-4.106 1.69a.588.588 0 0 1-.188.44.616.616 0 0 1-.416.192c-.165.012-.32-.052-.464-.192L2.339 3.227a.623.623 0 0 1-.195-.454c0-.177.064-.329.192-.454a.622.622 0 0 1 .45-.189c.163 0 .308.063.433.189l1.069 1.09a.582.582 0 0 1 .188.446zm-.6 8.785c0 .186-.06.34-.182.46l-.475.469c-.181.12-.34.181-.475.181a.565.565 0 0 1-.415-.192.636.636 0 0 1-.185-.457c0-.168.065-.312.195-.433l.461-.482a.647.647 0 0 1 .454-.182.59.59 0 0 1 .44.186.62.62 0 0 1 .182.45zM2.8 7.94a.565.565 0 0 1-.195.44.606.606 0 0 1-.461.203H.635a.61.61 0 0 1-.446-.189A.619.619 0 0 1 0 7.94c0-.177.063-.327.189-.45a.616.616 0 0 1 .446-.185h1.509c.177 0 .33.063.46.188a.6.6 0 0 1 .196.447z"/></symbol><symbol id="icon-weather--p" viewBox="0 0 25 20"><path d="M25 14.877c0 .838-.205 1.61-.615 2.32a4.536 4.536 0 0 1-1.67 1.678 4.493 4.493 0 0 1-2.301.615H10.34a4.539 4.539 0 0 1-2.31-.615 4.55 4.55 0 0 1-1.684-1.679 4.53 4.53 0 0 1-.618-2.319c0-.616.131-1.236.392-1.857-.709-.866-1.064-1.893-1.064-3.079 0-.662.128-1.295.384-1.896a4.877 4.877 0 0 1 1.04-1.556A4.868 4.868 0 0 1 8.035 5.45a4.799 4.799 0 0 1 1.897-.383c1.378 0 2.58.54 3.61 1.62.72-.405 1.558-.61 2.512-.61 1.307 0 2.465.406 3.47 1.217a5.421 5.421 0 0 1 1.936 3.117c1.04.238 1.89.774 2.55 1.605.66.832.99 1.783.99 2.86zm-1.587 0c0-.778-.26-1.45-.78-2.014a3.069 3.069 0 0 0-1.958-.986l-.463-.025c-.116 0-.174-.056-.174-.166l-.06-.506a3.99 3.99 0 0 0-1.31-2.525 3.763 3.763 0 0 0-2.614-1.015 3.875 3.875 0 0 0-2.673 1.02 3.743 3.743 0 0 0-1.277 2.52l-.07.54c-.024.105-.088.157-.193.157h-1.5c-.818 0-1.525.297-2.118.89s-.89 1.297-.89 2.11c0 .843.296 1.563.886 2.158a2.88 2.88 0 0 0 2.122.894h10.073c.812 0 1.516-.3 2.11-.903a2.956 2.956 0 0 0 .889-2.15v.002zM17.178 3.463a.826.826 0 0 1-.228.586l-.61.592c-.232.175-.43.253-.592.235a.693.693 0 0 1-.515-.24.812.812 0 0 1-.226-.579.688.688 0 0 1 .243-.55l.55-.61a.828.828 0 0 1 1.141.004.76.76 0 0 1 .237.563zm-4.97 4.117c-.646-.623-1.404-.934-2.276-.934-.918 0-1.7.32-2.34.96a3.172 3.172 0 0 0-.964 2.338c0 .58.156 1.15.47 1.708a4.452 4.452 0 0 1 3.243-1.335h.298c.232-1.011.755-1.924 1.569-2.737zM10.7 2.669c0 .239-.072.431-.217.575a.745.745 0 0 1-.55.218.778.778 0 0 1-.575-.217.778.778 0 0 1-.218-.575V.768a.737.737 0 0 1 .223-.55.781.781 0 0 1 .57-.218.745.745 0 0 1 .767.767V2.67zM5.565 4.806c0 .238-.07.43-.21.575-.198.15-.389.226-.575.226-.169 0-.353-.075-.55-.226L2.895 4.048a.86.86 0 0 1-.226-.594.76.76 0 0 1 .226-.558.749.749 0 0 1 .55-.227.7.7 0 0 1 .54.227L5.354 4.23c.137.16.211.364.21.575l.001.001zM4.824 15.81a.831.831 0 0 1-.236.585l-.602.584a.703.703 0 0 1-.541.226.737.737 0 0 1-.552-.231.803.803 0 0 1-.223-.579.738.738 0 0 1 .226-.541l.602-.601a.729.729 0 0 1 .532-.228.77.77 0 0 1 .563.227.75.75 0 0 1 .23.558zM3.46 9.941a.696.696 0 0 1-.244.541.769.769 0 0 1-.566.227H.75a.72.72 0 0 1-.537-.218.752.752 0 0 1-.213-.55c0-.22.071-.407.212-.562A.7.7 0 0 1 .75 9.15h1.9a.788.788 0 0 1 .573.235c.153.144.24.346.238.558V9.94z"/></symbol><symbol id="icon-weather--pb" viewBox="0 0 20 20"><path d="M19.698 11.747a3.48 3.48 0 0 1-1.02 2.513 3.586 3.586 0 0 1-2.488 1.12c-.083 0-.124-.042-.124-.124v-1.003c0-.087.041-.13.124-.13a2.411 2.411 0 0 0 1.606-.759 2.26 2.26 0 0 0 .652-1.617c0-.613-.207-1.147-.62-1.603a2.258 2.258 0 0 0-1.535-.758l-.385-.055c-.096 0-.144-.042-.144-.124l-.041-.37a2.979 2.979 0 0 0-1.006-1.988 3.034 3.034 0 0 0-2.098-.8c-.796 0-1.49.265-2.083.796a3.027 3.027 0 0 0-1.02 1.991l-.048.426c0 .082-.046.124-.137.124H8.157c-.664 0-1.23.23-1.7.693a2.258 2.258 0 0 0-.703 1.668c0 .623.217 1.162.652 1.617.435.456.97.709 1.606.759.097 0 .145.043.145.13v1.003c0 .082-.048.123-.145.123-.974-.032-1.8-.4-2.475-1.105a3.525 3.525 0 0 1-1.012-2.527c0-.494.114-1 .343-1.517a3.613 3.613 0 0 1-.872-2.396c0-.522.102-1.02.306-1.493a3.88 3.88 0 0 1 .82-1.226 3.833 3.833 0 0 1 1.226-.817 3.764 3.764 0 0 1 1.486-.302c1.13 0 2.078.423 2.842 1.27a4.428 4.428 0 0 1 1.943-.453 4.3 4.3 0 0 1 2.757.954 4.239 4.239 0 0 1 1.534 2.465A3.52 3.52 0 0 1 18.908 9.5c.527.657.79 1.406.79 2.248zM14.205 20h-.22l-3.892-5.747c-.028-.032-.033-.065-.017-.1.016-.034.049-.05.1-.05h1.599l-1.682-3.083c-.055-.106-.02-.158.103-.158h2.156c.06 0 .112.034.158.103l1.579 4.188c.018.1-.016.15-.103.15H12.4L14.205 20zM13.56 2.733c0 .183-.06.334-.179.453l-.48.473c-.307.234-.602.234-.886 0a.677.677 0 0 1-.178-.466c0-.17.06-.314.178-.433l.467-.474a.663.663 0 0 1 .453-.185.6.6 0 0 1 .44.185.608.608 0 0 1 .185.447zm-3.913 3.24a2.469 2.469 0 0 0-1.813-.748c-.714 0-1.323.254-1.826.762a2.527 2.527 0 0 0-.756 1.847c0 .444.124.886.371 1.325.714-.687 1.559-1.03 2.534-1.03h.226a4.234 4.234 0 0 1 1.264-2.156zM8.459 2.101a.603.603 0 0 1-.625.632.58.58 0 0 1-.433-.175.624.624 0 0 1-.171-.457V.604A.586.586 0 0 1 7.834 0a.62.62 0 0 1 .443.172.57.57 0 0 1 .182.432v1.497zM4.422 3.797a.58.58 0 0 1-.2.44c-.132.123-.267.185-.405.185-.119 0-.27-.062-.453-.186l-1.057-1.05a.655.655 0 0 1-.185-.46.6.6 0 0 1 .182-.447.609.609 0 0 1 .868.007l1.05 1.05c.133.143.2.296.2.46zm-.598 8.658a.64.64 0 0 1-.178.446l-.474.48a.581.581 0 0 1-.426.179.63.63 0 0 1-.625-.645.55.55 0 0 1 .186-.42l.453-.48a.692.692 0 0 1 .453-.172c.17 0 .314.06.433.179a.59.59 0 0 1 .178.433zM2.76 7.834c0 .16-.064.3-.192.419a.6.6 0 0 1-.44.185H.632a.627.627 0 0 1-.447-.175.567.567 0 0 1-.185-.43.6.6 0 0 1 .189-.445.612.612 0 0 1 .443-.186h1.496a.61.61 0 0 1 .443.186.603.603 0 0 1 .19.446z"/></symbol><symbol id="icon-weather--pd" viewBox="0 0 20 20"><path d="M20 11.89c0 .986-.344 1.835-1.032 2.546a3.628 3.628 0 0 1-2.526 1.137c-.083 0-.125-.042-.125-.126v-.993c0-.084.042-.125.125-.125a2.32 2.32 0 0 0 1.623-.761 2.37 2.37 0 0 0 .67-1.679 2.28 2.28 0 0 0-.629-1.598 2.454 2.454 0 0 0-1.56-.792l-.389-.035c-.097 0-.146-.042-.146-.125l-.049-.403a3.028 3.028 0 0 0-1.018-2.015 3.054 3.054 0 0 0-2.116-.813c-.806 0-1.512.27-2.12.813a3.039 3.039 0 0 0-1.035 2.015l-.055.424c0 .093-.042.139-.125.139H8.29c-.657 0-1.226.236-1.706.709-.48.472-.719 1.033-.719 1.681 0 .644.223 1.204.667 1.679.445.475.985.728 1.62.76.092 0 .138.042.138.126v.993c0 .084-.046.126-.139.126A3.523 3.523 0 0 1 5.64 14.45a3.567 3.567 0 0 1-1.032-2.56c0-.533.105-1.03.313-1.488a3.801 3.801 0 0 1-.869-2.453c0-.704.175-1.356.525-1.956.35-.6.824-1.074 1.421-1.421a3.804 3.804 0 0 1 1.946-.521c1.154 0 2.113.43 2.877 1.292a4.194 4.194 0 0 1 2.008-.486c1.047 0 1.976.325 2.787.976a4.33 4.33 0 0 1 1.557 2.491 3.6 3.6 0 0 1 2.029 1.29c.533.664.799 1.423.799 2.275zm-4.003 5.08a.637.637 0 0 1-.486.61.977.977 0 0 1-.202.029c-.292 0-.482-.158-.57-.473l-1.174-4.357a.602.602 0 0 1 .059-.494.559.559 0 0 1 .393-.277.575.575 0 0 1 .469.048.62.62 0 0 1 .302.375l1.174 4.378c.024.093.035.146.035.16zm-1.932 2.286a.712.712 0 0 1-.11.385c-.075.118-.202.191-.383.22a.963.963 0 0 1-.195.027.572.572 0 0 1-.535-.486l-1.779-6.623a.615.615 0 0 1 .052-.476.612.612 0 0 1 .372-.295.604.604 0 0 1 .483.048c.15.084.25.209.295.375l1.78 6.623.02.202zm-.312-16.477a.616.616 0 0 1-.188.452l-.48.486a.736.736 0 0 1-.458.167.632.632 0 0 1-.431-.174.562.562 0 0 1-.195-.438c0-.18.06-.338.181-.472l.473-.48a.64.64 0 0 1 .907.004c.127.127.19.279.19.455zM10.987 16.99a.62.62 0 0 1-.459.59.954.954 0 0 1-.187.029.67.67 0 0 1-.365-.108c-.114-.072-.187-.193-.22-.365L8.583 12.78a.615.615 0 0 1 .052-.476.612.612 0 0 1 .372-.295.6.6 0 0 1 .483.048.6.6 0 0 1 .289.375l1.174 4.378c.023.107.035.167.035.181zM9.777 6.06c-.523-.496-1.134-.744-1.834-.744a2.52 2.52 0 0 0-1.855.768 2.546 2.546 0 0 0-.765 1.866c0 .463.128.92.382 1.37.718-.72 1.58-1.08 2.585-1.08h.244a4.372 4.372 0 0 1 1.244-2.182zM8.583 2.167a.574.574 0 0 1-.187.435.634.634 0 0 1-.452.177.597.597 0 0 1-.612-.612V.645c0-.19.058-.345.174-.465A.582.582 0 0 1 7.943 0c.185 0 .338.06.459.183.12.123.18.277.18.462v1.522zm-4.1 1.689a.54.54 0 0 1-.201.438.57.57 0 0 1-.407.19.58.58 0 0 1-.462-.19L2.342 3.23a.62.62 0 0 1-.195-.466.625.625 0 0 1 1.07-.445l1.064 1.07a.61.61 0 0 1 .201.466zm-.604 8.784c0 .176-.06.331-.181.466l-.48.465a.7.7 0 0 1-.444.153l-.014.014a.588.588 0 0 1-.431-.18.613.613 0 0 1-.18-.452c0-.177.064-.32.194-.431l.459-.487a.668.668 0 0 1 .458-.18.59.59 0 0 1 .438.184c.12.122.18.272.18.448zM2.8 7.95a.562.562 0 0 1-.195.437.627.627 0 0 1-.459.195H.64a.616.616 0 0 1-.451-.188A.608.608 0 0 1 0 7.949c0-.176.063-.328.188-.455a.61.61 0 0 1 .451-.191h1.508c.176 0 .33.064.459.191.13.127.195.28.195.455z"/></symbol><symbol id="icon-weather--pds" viewBox="0 0 20 20"><path d="M20 11.914c0 .642-.158 1.24-.475 1.794a3.686 3.686 0 0 1-1.295 1.334 3.567 3.567 0 0 1-1.791.53c-.084 0-.126-.041-.126-.125v-.991c0-.094.042-.14.126-.14a2.335 2.335 0 0 0 1.623-.758c.45-.472.674-1.02.674-1.644 0-.615-.21-1.15-.632-1.606a2.46 2.46 0 0 0-1.56-.797l-.392-.041c-.088 0-.132-.047-.132-.14l-.056-.377a3.054 3.054 0 0 0-1.016-2.036 3.052 3.052 0 0 0-2.12-.813c-.81 0-1.519.27-2.126.813a3.012 3.012 0 0 0-1.03 2.015l-.056.433c0 .084-.042.126-.126.126h-1.2c-.671 0-1.244.238-1.719.715a2.337 2.337 0 0 0-.712 1.708c0 .624.225 1.172.674 1.644.45.473.988.725 1.616.758.094 0 .14.046.14.14v.991c0 .084-.046.126-.14.126a3.539 3.539 0 0 1-2.514-1.117c-.689-.713-1.033-1.56-1.033-2.542 0-.564.107-1.069.321-1.516a3.72 3.72 0 0 1-.88-2.458c0-.698.175-1.346.524-1.945a3.88 3.88 0 0 1 1.425-1.42A3.81 3.81 0 0 1 7.94 4.05c1.145 0 2.107.43 2.884 1.291a4.16 4.16 0 0 1 2.004-.488 4.33 4.33 0 0 1 2.787.974 4.33 4.33 0 0 1 1.557 2.49c.833.204 1.513.64 2.039 1.305.526.666.789 1.43.789 2.29zm-4.728 3.016a.635.635 0 0 1-.178.454.577.577 0 0 1-.436.189.577.577 0 0 1-.437-.189.637.637 0 0 1-.178-.454c0-.167.06-.311.178-.433a.588.588 0 0 1 .437-.181c.172 0 .318.06.436.181a.597.597 0 0 1 .178.433zm0 2.703a.622.622 0 0 1-.615.608.596.596 0 0 1-.614-.608.6.6 0 0 1 .615-.615.6.6 0 0 1 .614.615zM13.75 2.787a.57.57 0 0 1-.182.44l-.488.488a.582.582 0 0 1-.398.189c-.154.023-.305-.032-.454-.164a.612.612 0 0 1-.224-.472c0-.181.06-.34.182-.474l.475-.454a.553.553 0 0 1 .433-.189.642.642 0 0 1 .656.636zm-.845 13.575c0 .168-.06.317-.182.447a.591.591 0 0 1-.432.182.62.62 0 0 1-.45-.182.602.602 0 0 1-.186-.447c0-.172.062-.32.185-.443a.613.613 0 0 1 .45-.185c.168 0 .312.061.433.185a.61.61 0 0 1 .182.443zm0-2.682c0 .168-.06.312-.182.433a.591.591 0 0 1-.432.182.625.625 0 0 1-.45-.178.582.582 0 0 1-.186-.437c0-.172.062-.318.185-.44a.62.62 0 0 1 .45-.181c.168 0 .312.06.433.182a.6.6 0 0 1 .182.44zm0 5.405a.58.58 0 0 1-.182.426.595.595 0 0 1-.432.189.632.632 0 0 1-.45-.175.58.58 0 0 1-.186-.44c0-.176.062-.327.185-.45a.613.613 0 0 1 .88.004.616.616 0 0 1 .185.446zm-2.402-4.155a.63.63 0 0 1-.182.454.588.588 0 0 1-.44.189.577.577 0 0 1-.436-.189.637.637 0 0 1-.178-.454c0-.167.06-.311.178-.433a.588.588 0 0 1 .436-.181.6.6 0 0 1 .44.181.591.591 0 0 1 .182.433zm0 2.703a.61.61 0 0 1-.175.426.638.638 0 0 1-.447.182.596.596 0 0 1-.614-.608.6.6 0 0 1 .615-.615c.176 0 .324.06.443.179a.593.593 0 0 1 .178.436zM9.777 6.048a2.554 2.554 0 0 0-1.837-.74c-.722 0-1.339.258-1.85.775a2.545 2.545 0 0 0-.77 1.857c0 .466.126.922.377 1.369.713-.712 1.576-1.068 2.591-1.068h.238a4.482 4.482 0 0 1 1.25-2.193zM8.582 2.165a.566.566 0 0 1-.188.433.644.644 0 0 1-.454.175.596.596 0 0 1-.615-.608V.643c0-.177.06-.328.178-.454A.577.577 0 0 1 7.94 0c.172 0 .322.064.45.192a.617.617 0 0 1 .192.45v1.523zm-4.106 1.69a.588.588 0 0 1-.188.44.616.616 0 0 1-.416.192c-.165.012-.32-.052-.464-.192L2.339 3.227a.623.623 0 0 1-.195-.454c0-.177.064-.329.192-.454a.622.622 0 0 1 .45-.189c.163 0 .308.063.433.189l1.069 1.09a.582.582 0 0 1 .188.446zm-.6 8.785c0 .186-.06.34-.182.46l-.475.469c-.181.12-.34.181-.475.181a.565.565 0 0 1-.415-.192.636.636 0 0 1-.185-.457c0-.168.065-.312.195-.433l.461-.482a.647.647 0 0 1 .454-.182.59.59 0 0 1 .44.186.62.62 0 0 1 .182.45zM2.8 7.94a.565.565 0 0 1-.195.44.606.606 0 0 1-.461.203H.635a.61.61 0 0 1-.446-.189A.619.619 0 0 1 0 7.94c0-.177.063-.327.189-.45a.616.616 0 0 1 .446-.185h1.509c.177 0 .33.063.46.188a.6.6 0 0 1 .196.447z"/></symbol><symbol id="icon-weather--ps" viewBox="0 0 20 20"><path d="M20 11.914c0 .642-.158 1.24-.475 1.794a3.686 3.686 0 0 1-1.295 1.334 3.567 3.567 0 0 1-1.791.53c-.084 0-.126-.041-.126-.125v-.991c0-.094.042-.14.126-.14a2.335 2.335 0 0 0 1.623-.758c.45-.472.674-1.02.674-1.644 0-.615-.21-1.15-.632-1.606a2.46 2.46 0 0 0-1.56-.797l-.392-.041c-.088 0-.132-.047-.132-.14l-.056-.377a3.054 3.054 0 0 0-1.016-2.036 3.052 3.052 0 0 0-2.12-.813c-.81 0-1.519.27-2.126.813a3.012 3.012 0 0 0-1.03 2.015l-.056.433c0 .084-.042.126-.126.126h-1.2c-.671 0-1.244.238-1.719.715a2.337 2.337 0 0 0-.712 1.708c0 .624.225 1.172.674 1.644.45.473.988.725 1.616.758.094 0 .14.046.14.14v.991c0 .084-.046.126-.14.126a3.539 3.539 0 0 1-2.514-1.117c-.689-.713-1.033-1.56-1.033-2.542 0-.564.107-1.069.321-1.516a3.72 3.72 0 0 1-.88-2.458c0-.698.175-1.346.524-1.945a3.88 3.88 0 0 1 1.425-1.42A3.81 3.81 0 0 1 7.94 4.05c1.145 0 2.107.43 2.884 1.291a4.16 4.16 0 0 1 2.004-.488 4.33 4.33 0 0 1 2.787.974 4.33 4.33 0 0 1 1.557 2.49c.833.204 1.513.64 2.039 1.305.526.666.789 1.43.789 2.29zm-4.728 3.016a.635.635 0 0 1-.178.454.577.577 0 0 1-.436.189.577.577 0 0 1-.437-.189.637.637 0 0 1-.178-.454c0-.167.06-.311.178-.433a.588.588 0 0 1 .437-.181c.172 0 .318.06.436.181a.597.597 0 0 1 .178.433zm0 2.703a.622.622 0 0 1-.615.608.596.596 0 0 1-.614-.608.6.6 0 0 1 .615-.615.6.6 0 0 1 .614.615zM13.75 2.787a.57.57 0 0 1-.182.44l-.488.488a.582.582 0 0 1-.398.189c-.154.023-.305-.032-.454-.164a.612.612 0 0 1-.224-.472c0-.181.06-.34.182-.474l.475-.454a.553.553 0 0 1 .433-.189.642.642 0 0 1 .656.636zm-.845 13.575c0 .168-.06.317-.182.447a.591.591 0 0 1-.432.182.62.62 0 0 1-.45-.182.602.602 0 0 1-.186-.447c0-.172.062-.32.185-.443a.613.613 0 0 1 .45-.185c.168 0 .312.061.433.185a.61.61 0 0 1 .182.443zm0-2.682c0 .168-.06.312-.182.433a.591.591 0 0 1-.432.182.625.625 0 0 1-.45-.178.582.582 0 0 1-.186-.437c0-.172.062-.318.185-.44a.62.62 0 0 1 .45-.181c.168 0 .312.06.433.182a.6.6 0 0 1 .182.44zm0 5.405a.58.58 0 0 1-.182.426.595.595 0 0 1-.432.189.632.632 0 0 1-.45-.175.58.58 0 0 1-.186-.44c0-.176.062-.327.185-.45a.613.613 0 0 1 .88.004.616.616 0 0 1 .185.446zm-2.402-4.155a.63.63 0 0 1-.182.454.588.588 0 0 1-.44.189.577.577 0 0 1-.436-.189.637.637 0 0 1-.178-.454c0-.167.06-.311.178-.433a.588.588 0 0 1 .436-.181.6.6 0 0 1 .44.181.591.591 0 0 1 .182.433zm0 2.703a.61.61 0 0 1-.175.426.638.638 0 0 1-.447.182.596.596 0 0 1-.614-.608.6.6 0 0 1 .615-.615c.176 0 .324.06.443.179a.593.593 0 0 1 .178.436zM9.777 6.048a2.554 2.554 0 0 0-1.837-.74c-.722 0-1.339.258-1.85.775a2.545 2.545 0 0 0-.77 1.857c0 .466.126.922.377 1.369.713-.712 1.576-1.068 2.591-1.068h.238a4.482 4.482 0 0 1 1.25-2.193zM8.582 2.165a.566.566 0 0 1-.188.433.644.644 0 0 1-.454.175.596.596 0 0 1-.615-.608V.643c0-.177.06-.328.178-.454A.577.577 0 0 1 7.94 0c.172 0 .322.064.45.192a.617.617 0 0 1 .192.45v1.523zm-4.106 1.69a.588.588 0 0 1-.188.44.616.616 0 0 1-.416.192c-.165.012-.32-.052-.464-.192L2.339 3.227a.623.623 0 0 1-.195-.454c0-.177.064-.329.192-.454a.622.622 0 0 1 .45-.189c.163 0 .308.063.433.189l1.069 1.09a.582.582 0 0 1 .188.446zm-.6 8.785c0 .186-.06.34-.182.46l-.475.469c-.181.12-.34.181-.475.181a.565.565 0 0 1-.415-.192.636.636 0 0 1-.185-.457c0-.168.065-.312.195-.433l.461-.482a.647.647 0 0 1 .454-.182.59.59 0 0 1 .44.186.62.62 0 0 1 .182.45zM2.8 7.94a.565.565 0 0 1-.195.44.606.606 0 0 1-.461.203H.635a.61.61 0 0 1-.446-.189A.619.619 0 0 1 0 7.94c0-.177.063-.327.189-.45a.616.616 0 0 1 .446-.185h1.509c.177 0 .33.063.46.188a.6.6 0 0 1 .196.447z"/></symbol><symbol id="icon-weather--z" viewBox="0 0 24 16"><path d="M24 11.129a4.448 4.448 0 0 0-1.002-2.861 4.466 4.466 0 0 0-2.572-1.605 5.335 5.335 0 0 0-1.924-3.113 5.394 5.394 0 0 0-3.474-1.212A5.389 5.389 0 0 0 11.61 3.52a5.336 5.336 0 0 0-1.95 3.023h-.293c-1.27 0-2.352.447-3.25 1.342A4.412 4.412 0 0 0 4.77 11.13c0 1.27.448 2.354 1.347 3.256.897.9 1.98 1.352 3.25 1.352h10.025a4.5 4.5 0 0 0 1.788-.365c.55-.23 1.05-.563 1.474-.982.419-.423.752-.924.981-1.473a4.509 4.509 0 0 0 .365-1.79zm-1.57 0c0 .824-.297 1.531-.89 2.121-.564.579-1.34.9-2.148.888H9.367a2.935 2.935 0 0 1-2.148-.888 2.886 2.886 0 0 1-.89-2.121c0-.823.297-1.529.891-2.115a2.944 2.944 0 0 1 2.147-.883h1.499c.108 0 .162-.053.162-.162l.07-.525c.11-1.02.536-1.866 1.281-2.537A3.827 3.827 0 0 1 15.027 3.9c1.021 0 1.907.337 2.659 1.013.753.674 1.176 1.52 1.272 2.532l.07.456c0 .107.057.16.172.16l.486.072a2.912 2.912 0 0 1 1.955.962c.527.573.79 1.252.79 2.035zM12.871 1.71c.108.103.08.176-.081.223a8.68 8.68 0 0 0-1.164.598c-.123.034-.204.024-.244-.031-.654-.621-1.417-.931-2.288-.931a3.24 3.24 0 0 0-2.264.876 3.211 3.211 0 0 0-1.068 2.162l-.102.689H4.132c-.702 0-1.307.252-1.812.753-.506.504-.76 1.103-.76 1.798 0 .648.222 1.212.668 1.692.429.47 1.017.766 1.65.829.108 0 .163.057.163.173v1.225c0 .115-.055.172-.163.172a4.013 4.013 0 0 1-2.753-1.285A3.938 3.938 0 0 1 0 7.848c0-1.14.403-2.114 1.21-2.92a3.98 3.98 0 0 1 2.922-1.211h.162c.283-1.08.876-1.97 1.776-2.67A4.812 4.812 0 0 1 9.096 0c1.524 0 2.784.57 3.776 1.711z"/></symbol><symbol id="icon-weather--zb" viewBox="0 0 20 20"><path d="M20 9.132c0 1.066-.32 2.02-.958 2.864a4.767 4.767 0 0 1-2.484 1.725l.633 1.617c.03.138-.015.208-.136.208h-2.05l.948 4.146h-.271l-3.776-5.537c-.036-.043-.04-.086-.013-.131.027-.046.073-.068.14-.068h2.095l-2.385-4.472c-.066-.138-.02-.208.136-.208h2.836c.09 0 .166.049.226.145l1.03 2.764a3.1 3.1 0 0 0 1.707-1.12 3.04 3.04 0 0 0 .678-1.933c0-.801-.273-1.497-.818-2.087a3.19 3.19 0 0 0-2.028-1.03l-.505-.063c-.127 0-.19-.057-.19-.171l-.063-.488a3.936 3.936 0 0 0-1.324-2.62 3.97 3.97 0 0 0-2.75-1.057 3.992 3.992 0 0 0-2.751 1.057 3.995 3.995 0 0 0-1.35 2.62l-.064.56c0 .108-.057.162-.172.162H4.797c-.873 0-1.62.306-2.24.917-.62.612-.931 1.345-.931 2.2 0 .819.286 1.528.858 2.127.572.6 1.28.932 2.123.998.127 0 .19.058.19.172v1.319c0 .108-.063.163-.19.163-1.283-.043-2.371-.527-3.266-1.455C.447 11.53 0 10.421 0 9.132c0-.867.214-1.667.641-2.398A4.713 4.713 0 0 1 2.39 4.999a4.743 4.743 0 0 1 2.408-.637h.298A5.604 5.604 0 0 1 7.132 1.22 5.599 5.599 0 0 1 10.678 0 5.64 5.64 0 0 1 14.3 1.265a5.603 5.603 0 0 1 2.023 3.234 4.634 4.634 0 0 1 2.638 1.666A4.614 4.614 0 0 1 20 9.132zm-7.85 9.359c0 .379-.187.626-.56.74-.012 0-.048.005-.109.014a.98.98 0 0 1-.135.013.902.902 0 0 1-.474-.14c-.154-.093-.258-.248-.312-.465L8.392 10.28a.818.818 0 0 1 .063-.623.783.783 0 0 1 .48-.38l.252-.027c.157 0 .309.049.456.145.148.096.249.24.303.434l2.177 8.4c.018.085.027.172.027.263zm-4.002-2.954a.71.71 0 0 1-.1.361.992.992 0 0 1-.487.425 1.03 1.03 0 0 1-.29.045.804.804 0 0 1-.306-.073c-.199-.084-.334-.268-.407-.55l-1.39-5.466a1.75 1.75 0 0 1-.046-.262c0-.144.051-.289.154-.433a.823.823 0 0 1 .442-.308l.253-.027a.737.737 0 0 1 .74.578l1.41 5.493c0 .018.005.053.014.104a.727.727 0 0 1 .013.113z"/></symbol><symbol id="icon-weather--zd" viewBox="0 0 20 20"><path d="M20 9.135c0-1.11-.347-2.097-1.04-2.962a4.638 4.638 0 0 0-2.633-1.669 5.655 5.655 0 0 0-2.035-3.238 5.632 5.632 0 0 0-3.618-1.267c-1.327 0-2.51.412-3.55 1.235a5.631 5.631 0 0 0-2.031 3.17h-.308a4.76 4.76 0 0 0-2.397.63A4.681 4.681 0 0 0 .642 6.751 4.61 4.61 0 0 0 0 9.135c0 .845.204 1.63.61 2.357a4.719 4.719 0 0 0 1.67 1.741 4.595 4.595 0 0 0 2.315.688c.127 0 .19-.055.19-.163v-1.285c0-.114-.063-.172-.19-.172-.82-.042-1.521-.37-2.103-.986a3.066 3.066 0 0 1-.873-2.18c0-.838.314-1.566.94-2.184.628-.618 1.37-.927 2.226-.927h1.556c.115 0 .172-.055.172-.163l.072-.56A3.946 3.946 0 0 1 7.93 2.68a3.995 3.995 0 0 1 2.745-1.053c1.055 0 1.973.35 2.754 1.053a3.888 3.888 0 0 1 1.316 2.62l.073.515c0 .12.063.18.19.18l.506.028a3.19 3.19 0 0 1 2.022 1.03 2.97 2.97 0 0 1 .819 2.081c0 .839-.29 1.565-.869 2.18-.579.616-1.281.944-2.107.986-.109 0-.163.058-.163.172v1.285c0 .108.054.163.163.163 1.29-.06 2.383-.552 3.279-1.475.895-.923 1.343-2.026 1.343-3.31zm-5.165 6.45a.767.767 0 0 0-.036-.19l-1.574-5.563a.77.77 0 0 0-.312-.425.812.812 0 0 0-.448-.145c-.066 0-.145.01-.235.027a.738.738 0 0 0-.52.353.778.778 0 0 0-.077.642l1.574 5.527c.12.41.386.615.796.615a.341.341 0 0 0 .108-.018.499.499 0 0 1 .1-.027.805.805 0 0 0 .47-.321.846.846 0 0 0 .154-.475zm-2.533 2.714L9.95 9.832a.653.653 0 0 0-.29-.425.86.86 0 0 0-.47-.145c-.084 0-.171.01-.262.027a.746.746 0 0 0-.47.376.813.813 0 0 0-.064.62l2.343 8.475a.71.71 0 0 0 .28.416.791.791 0 0 0 .49.172.63.63 0 0 0 .243-.045c.193-.048.36-.175.498-.38.108-.169.126-.377.054-.624zm-3.98-2.687a1.27 1.27 0 0 0-.036-.217L6.712 9.832a.744.744 0 0 0-.294-.425.783.783 0 0 0-.448-.145c-.078 0-.163.01-.253.027a.763.763 0 0 0-.448.299.787.787 0 0 0-.15.452c0 .03.007.074.019.131a.712.712 0 0 1 .018.113l1.574 5.527a.717.717 0 0 0 .271.448.78.78 0 0 0 .489.167l.235-.045a.759.759 0 0 0 .443-.312.82.82 0 0 0 .154-.457z"/></symbol><symbol id="icon-weather--zds" viewBox="0 0 20 20"><path d="M20 9.144c0-1.11-.347-2.1-1.04-2.97-.693-.87-1.57-1.429-2.632-1.675a5.598 5.598 0 0 0-2.021-3.235C13.254.42 12.047-.001 10.684-.001c-.78 0-1.485.129-2.115.387 0 .006-.003.012-.01.018A5.537 5.537 0 0 0 6.437 1.89H6.41A5.476 5.476 0 0 0 5.095 4.4h-.298c-1.038 0-1.944.276-2.718.829v-.01A4.7 4.7 0 0 0 .797 6.498a4.528 4.528 0 0 0-.698 1.674c-.036.204-.06.369-.072.495v.054l-.013.162c-.01.102-.014.18-.014.234v.027c0 .846.204 1.63.612 2.354a4.755 4.755 0 0 0 1.67 1.737c.705.435 1.48.664 2.326.688.126 0 .19-.054.19-.162v-1.287c0-.12-.064-.18-.19-.18-.822-.042-1.52-.369-2.092-.98a3.068 3.068 0 0 1-.86-2.17c0-.852.31-1.586.927-2.2.618-.616 1.356-.923 2.214-.923h1.549c.114 0 .17-.054.17-.162l.073-.567c.096-.96.5-1.789 1.215-2.485a.263.263 0 0 0 .022-.027.263.263 0 0 1 .023-.027c.012-.012.024-.018.036-.018 0-.018.006-.027.018-.027a4.087 4.087 0 0 1 2.457-1.08c.066-.006.174-.009.324-.009a3.96 3.96 0 0 1 2.75 1.058 3.939 3.939 0 0 1 1.318 2.615l.072.567c.03.09.102.135.217.135l.486.027c.81.096 1.485.438 2.025 1.026.54.588.81 1.287.81 2.097v.036h-.027a3.148 3.148 0 0 1-.293 1.296 3.151 3.151 0 0 1-.77 1.044 3.087 3.087 0 0 1-.71.46v.008a2.96 2.96 0 0 1-1.161.306c-.108 0-.162.057-.162.171v1.287c0 .108.054.162.162.162.498-.03.972-.126 1.422-.288v.01a4.647 4.647 0 0 0 2.03-1.378 4.63 4.63 0 0 0 1.066-2.214v-.027A4.396 4.396 0 0 0 20 9.144zm-5.284 6.886c0-.03-.006-.07-.018-.122a.552.552 0 0 1-.018-.112l-.09-.567a.823.823 0 0 0-.391-.509.854.854 0 0 0-.653-.077.8.8 0 0 0-.486.397.738.738 0 0 0-.063.603l.135.576c.096.42.34.63.73.63.03 0 .073-.006.13-.018a.689.689 0 0 1 .13-.018.783.783 0 0 0 .446-.315.838.838 0 0 0 .148-.468zm-.71-2.827a.769.769 0 0 0-.793-.792.769.769 0 0 0-.792.792.769.769 0 0 0 .792.783.715.715 0 0 0 .55-.234.72.72 0 0 0 .242-.549zm-1.576 5.752c0-.036-.012-.108-.036-.216l-.126-.567a.817.817 0 0 0-.396-.49.728.728 0 0 0-.603-.068.715.715 0 0 0-.504.35.847.847 0 0 0-.08.658l.125.567c.096.39.351.585.765.585.072 0 .15-.009.234-.027a.801.801 0 0 0 .468-.32.842.842 0 0 0 .153-.472zm-.756-2.79a.769.769 0 0 0-.792-.783.769.769 0 0 0-.792.783.769.769 0 0 0 .792.792.762.762 0 0 0 .558-.234.762.762 0 0 0 .234-.558zm-.594-2.179c0-.096-.009-.183-.027-.26l-.216-.865a.853.853 0 0 0-.396-.508.727.727 0 0 0-.612-.077.827.827 0 0 0-.509.387.723.723 0 0 0-.067.603l.252.864c.078.264.21.444.396.54.186.096.39.115.612.054a.63.63 0 0 0 .437-.288.725.725 0 0 0 .13-.45zM8.425 16.04a.82.82 0 0 0-.014-.126.828.828 0 0 1-.013-.108l-.09-.567a.823.823 0 0 0-.392-.509.854.854 0 0 0-.652-.077.817.817 0 0 0-.49.397.728.728 0 0 0-.068.603l.135.576c.096.42.339.63.729.63.03 0 .075-.006.135-.018a.758.758 0 0 1 .135-.018.781.781 0 0 0 .436-.315.838.838 0 0 0 .149-.468zm-.711-2.827a.769.769 0 0 0-.792-.792.769.769 0 0 0-.792.792.769.769 0 0 0 .792.783.725.725 0 0 0 .558-.234.715.715 0 0 0 .234-.549z"/></symbol><symbol id="icon-weather--zs" viewBox="0 0 20 20"><path d="M20 9.173A4.658 4.658 0 0 0 18.973 6.2a4.718 4.718 0 0 0-2.646-1.696 5.663 5.663 0 0 0-2.03-3.238C13.244.423 12.037.001 10.674.001c-1.327 0-2.51.411-3.55 1.234a5.631 5.631 0 0 0-2.031 3.17h-.308c-.862 0-1.661.213-2.397.639A4.73 4.73 0 0 0 .642 6.78 4.659 4.659 0 0 0 0 9.173c0 1.278.446 2.379 1.339 3.302.892.922 1.978 1.405 3.256 1.447.127 0 .19-.054.19-.163v-1.284c0-.115-.063-.172-.19-.172-.82-.042-1.521-.37-2.103-.982-.582-.612-.873-1.328-.873-2.148 0-.856.31-1.595.932-2.216.621-.621 1.366-.932 2.234-.932h1.556c.115 0 .172-.054.172-.163l.072-.56A3.963 3.963 0 0 1 7.93 2.677c.787-.705 1.702-1.058 2.745-1.058a3.97 3.97 0 0 1 2.763 1.067 3.991 3.991 0 0 1 1.326 2.65l.054.48c0 .12.063.18.19.18l.506.064a2.98 2.98 0 0 1 2.022 1c.546.6.819 1.304.819 2.112 0 .82-.291 1.536-.873 2.148-.582.612-1.283.94-2.103.982-.109 0-.163.057-.163.172v1.284c0 .109.054.163.163.163 1.29-.042 2.383-.525 3.279-1.447C19.552 11.552 20 10.45 20 9.173zm-6.142 3.926a.773.773 0 0 0-.23-.561.761.761 0 0 0-.566-.235.761.761 0 0 0-.565.235.773.773 0 0 0-.231.56c0 .23.077.424.23.584.154.16.343.24.566.24.223 0 .412-.08.565-.24a.81.81 0 0 0 .231-.583zm0 3.5a.787.787 0 0 0-.235-.578.778.778 0 0 0-.561-.218.777.777 0 0 0-.796.796.777.777 0 0 0 .796.796.777.777 0 0 0 .796-.796zm-3.076-1.637a.852.852 0 0 0-.244-.597.755.755 0 0 0-.552-.235.799.799 0 0 0-.583.249.799.799 0 0 0-.249.583c0 .223.082.415.244.575a.81.81 0 0 0 .588.24c.218 0 .404-.08.561-.24a.791.791 0 0 0 .235-.575zm0-3.491a.791.791 0 0 0-.244-.58.796.796 0 0 0-.552-.235.81.81 0 0 0-.588.24.776.776 0 0 0-.244.575.75.75 0 0 0 .244.565c.163.154.36.23.588.23a.773.773 0 0 0 .561-.23.761.761 0 0 0 .235-.565zm0 7.019a.842.842 0 0 0-.244-.588.755.755 0 0 0-.552-.235.802.802 0 0 0-.588.244.791.791 0 0 0-.244.579c0 .223.082.412.244.565.163.154.36.231.588.231a.773.773 0 0 0 .561-.23.761.761 0 0 0 .235-.566zm-3.111-5.391a.757.757 0 0 0-.244-.557.799.799 0 0 0-.58-.24.761.761 0 0 0-.565.236.773.773 0 0 0-.23.56c0 .23.076.424.23.584.154.16.342.24.566.24a.785.785 0 0 0 .583-.244.799.799 0 0 0 .24-.58zm0 3.5a.832.832 0 0 0-.244-.578.822.822 0 0 0-.58-.218.773.773 0 0 0-.795.796.773.773 0 0 0 .796.796.81.81 0 0 0 .583-.23.754.754 0 0 0 .24-.566z"/></symbol><symbol id="icon-zoom-in" viewBox="0 0 31 31"><path d="M31 27.645l-7.888-7.896a12.582 12.582 0 0 0 2.172-7.091c0-6.99-5.661-12.657-12.642-12.657C5.663.001-.001 5.668-.001 12.658s5.663 12.655 12.643 12.655a12.57 12.57 0 0 0 7.126-2.203l7.879 7.891L31 27.645zM2.829 12.657c0-5.425 4.395-9.824 9.813-9.824 5.417 0 9.813 4.398 9.813 9.824 0 5.424-4.396 9.823-9.813 9.823-5.418 0-9.813-4.398-9.813-9.823z"/><path d="M20 11h-5V6h-4v5H6v4h5v5h4v-5h5z"/></symbol><symbol id="icon-zoom-out" viewBox="0 0 31 31"><path d="M23.113 19.748a12.582 12.582 0 0 0 2.172-7.091C25.285 5.667 19.623 0 12.642 0 5.664 0 0 5.667 0 12.657s5.664 12.655 12.643 12.655c2.643 0 5.096-.813 7.127-2.203L27.649 31l3.352-3.355-7.888-7.897zm-10.47 2.732c-5.418 0-9.813-4.399-9.813-9.823 0-5.425 4.395-9.824 9.813-9.824 5.418 0 9.813 4.398 9.813 9.824-.001 5.425-4.395 9.823-9.813 9.823z"/><path d="M6 11h14v4H6z"/></symbol></svg>